<svg width="550" height="400"  ><g ><g ><g ><g ><line class="xAxisLine" stroke="black" stroke-width="1" x1="70" x2="547" y1="350" y2="350" ></line><text class="xAxisLineLabel" x="308.5" y="385" transform="rotate(0 308.5 385)" text-anchor="middle" fill="black" font-size="20" >An empty axis, no ticks</text></g></g><g ><g ><line class="yAxisTick" x1="66.25" x2="81.25" y1="340" y2="340" stroke="black" stroke-width="1" ></line><text class="yAxisTickLabel" x="62" y="342.5" transform="rotate(0 62 342.5)" text-anchor="end" fill="black" font-size="10" >1.0</text></g><g ><line class="yAxisTick" x1="66.25" x2="81.25" y1="285.5" y2="285.5" stroke="black" stroke-width="1" ></line><text class="yAxisTickLabel" x="62" y="288" transform="rotate(0 62 288)" text-anchor="end" fill="black" font-size="10" >1.5</text></g><g ><line class="yAxisTick" x1="66.25" x2="81.25" y1="231" y2="231" stroke="black" stroke-width="1" ></line><text class="yAxisTickLabel" x="62" y="233.5" transform="rotate(0 62 233.5)" text-anchor="end" fill="black" font-size="10" >2.0</text></g><g ><line class="yAxisTick" x1="66.25" x2="81.25" y1="176.5" y2="176.5" stroke="black" stroke-width="1" ></line><text class="yAxisTickLabel" x="62" y="179" transform="rotate(0 62 179)" text-anchor="end" fill="black" font-size="10" >2.5</text></g><g ><line class="yAxisTick" x1="66.25" x2="81.25" y1="121.99999999999997" y2="121.99999999999997" stroke="black" stroke-width="1" ></line><text class="yAxisTickLabel" x="62" y="124.49999999999997" transform="rotate(0 62 124.49999999999997)" text-anchor="end" fill="black" font-size="10" >3.0</text></g><g ><line class="yAxisTick" x1="66.25" x2="81.25" y1="67.5" y2="67.5" stroke="black" stroke-width="1" ></line><text class="yAxisTickLabel" x="62" y="70" transform="rotate(0 62 70)" text-anchor="end" fill="black" font-size="10" >3.5</text></g><g ><line class="yAxisTick" x1="66.25" x2="81.25" y1="12.999999999999943" y2="12.999999999999943" stroke="black" stroke-width="1" ></line><text class="yAxisTickLabel" x="62" y="15.499999999999943" transform="rotate(0 62 15.499999999999943)" text-anchor="end" fill="black" font-size="10" >4.0</text></g><g ><line class="yAxisLine" stroke="black" stroke-width="1" x1="70" x2="70" y1="350" y2="3" ></line><text class="yAxisLineLabel" x="25" y="176.5" transform="rotate(-90 25 176.5)" text-anchor="middle" fill="black" font-size="20" >An empty axis, ticks</text></g></g></g><g ><g ><g ><path d="M 80,340 L 156.16666666666669,231 L 232.33333333333331,231 L 308.5,121.99999999999997 L 384.6666666666667,176.5 L 460.8333333333333,12.999999999999943 L 537,340" stroke="blue" stroke-width="1" opacity="1" fill="none" ></path></g><circle cx="80" cy="340" r="3" fill="blue" opacity="1" stroke="blue" stroke-width="0" ></circle><circle cx="156.16666666666669" cy="231" r="3" fill="blue" opacity="1" stroke="blue" stroke-width="0" ></circle><circle cx="232.33333333333331" cy="231" r="3" fill="blue" opacity="1" stroke="blue" stroke-width="0" ></circle><circle cx="308.5" cy="121.99999999999997" r="3" fill="blue" opacity="1" stroke="blue" stroke-width="0" ></circle><circle cx="384.6666666666667" cy="176.5" r="3" fill="blue" opacity="1" stroke="blue" stroke-width="0" ></circle><circle cx="460.8333333333333" cy="12.999999999999943" r="3" fill="blue" opacity="1" stroke="blue" stroke-width="0" ></circle><circle cx="537" cy="340" r="3" fill="blue" opacity="1" stroke="blue" stroke-width="0" ></circle></g></g></g></svg>