<svg width="400" height="300"  ><g ><g ><g ><g ><line class="xAxisLine" stroke="black" stroke-width="1" x1="70" x2="397" y1="250" y2="250" ></line><text class="xAxisLineLabel" x="233.5" y="285" transform="rotate(0 233.5 285)" text-anchor="middle" fill="black" font-size="20" >An empty axis, no ticks</text></g></g><g ><g ><line class="yAxisTick" x1="66.25" x2="81.25" y1="240" y2="240" stroke="black" stroke-width="1" ></line><text class="yAxisTickLabel" x="62" y="242.5" transform="rotate(0 62 242.5)" text-anchor="end" fill="black" font-size="10" >1.0</text></g><g ><line class="yAxisTick" x1="66.25" x2="81.25" y1="202.16666666666666" y2="202.16666666666666" stroke="black" stroke-width="1" ></line><text class="yAxisTickLabel" x="62" y="204.66666666666666" transform="rotate(0 62 204.66666666666666)" text-anchor="end" fill="black" font-size="10" >1.5</text></g><g ><line class="yAxisTick" x1="66.25" x2="81.25" y1="164.33333333333331" y2="164.33333333333331" stroke="black" stroke-width="1" ></line><text class="yAxisTickLabel" x="62" y="166.83333333333331" transform="rotate(0 62 166.83333333333331)" text-anchor="end" fill="black" font-size="10" >2.0</text></g><g ><line class="yAxisTick" x1="66.25" x2="81.25" y1="126.49999999999999" y2="126.49999999999999" stroke="black" stroke-width="1" ></line><text class="yAxisTickLabel" x="62" y="129" transform="rotate(0 62 129)" text-anchor="end" fill="black" font-size="10" >2.5</text></g><g ><line class="yAxisTick" x1="66.25" x2="81.25" y1="88.66666666666666" y2="88.66666666666666" stroke="black" stroke-width="1" ></line><text class="yAxisTickLabel" x="62" y="91.16666666666666" transform="rotate(0 62 91.16666666666666)" text-anchor="end" fill="black" font-size="10" >3.0</text></g><g ><line class="yAxisTick" x1="66.25" x2="81.25" y1="50.833333333333314" y2="50.833333333333314" stroke="black" stroke-width="1" ></line><text class="yAxisTickLabel" x="62" y="53.333333333333314" transform="rotate(0 62 53.333333333333314)" text-anchor="end" fill="black" font-size="10" >3.5</text></g><g ><line class="yAxisTick" x1="66.25" x2="81.25" y1="12.999999999999972" y2="12.999999999999972" stroke="black" stroke-width="1" ></line><text class="yAxisTickLabel" x="62" y="15.499999999999972" transform="rotate(0 62 15.499999999999972)" text-anchor="end" fill="black" font-size="10" >4.0</text></g><g ><line class="yAxisLine" stroke="black" stroke-width="1" x1="70" x2="70" y1="250" y2="3" ></line><text class="yAxisLineLabel" x="25" y="126.5" transform="rotate(-90 25 126.5)" text-anchor="middle" fill="black" font-size="20" >An empty axis, ticks</text></g></g></g><g ><g ><g ><path d="M 80,240 L 131.16666666666669,164.33333333333331 L 182.33333333333331,164.33333333333331 L 233.5,88.66666666666666 L 284.66666666666663,126.49999999999999 L 335.8333333333333,12.999999999999972 L 387,240" stroke="blue" stroke-width="1" opacity="1" fill="none" ></path></g><circle cx="80" cy="240" r="3" fill="blue" opacity="1" stroke="blue" stroke-width="0" ></circle><circle cx="131.16666666666669" cy="164.33333333333331" r="3" fill="blue" opacity="1" stroke="blue" stroke-width="0" ></circle><circle cx="182.33333333333331" cy="164.33333333333331" r="3" fill="blue" opacity="1" stroke="blue" stroke-width="0" ></circle><circle cx="233.5" cy="88.66666666666666" r="3" fill="blue" opacity="1" stroke="blue" stroke-width="0" ></circle><circle cx="284.66666666666663" cy="126.49999999999999" r="3" fill="blue" opacity="1" stroke="blue" stroke-width="0" ></circle><circle cx="335.8333333333333" cy="12.999999999999972" r="3" fill="blue" opacity="1" stroke="blue" stroke-width="0" ></circle><circle cx="387" cy="240" r="3" fill="blue" opacity="1" stroke="blue" stroke-width="0" ></circle></g></g></g></svg>