<svg width="400" height="300"  ><g ><g ><g ><g ><line class="xAxisTick" x1="73.86480686695279" x2="73.86480686695279" y1="268.75" y2="253.75" stroke="black" stroke-width="1" ></line><text class="xAxisTickLabel" x="73.86480686695279" y="280.5" transform="rotate(0 73.86480686695279 280.5)" text-anchor="middle" fill="black" font-size="10" >0.0</text></g><g ><line class="xAxisTick" x1="122.07653791130184" x2="122.07653791130184" y1="268.75" y2="253.75" stroke="black" stroke-width="1" ></line><text class="xAxisTickLabel" x="122.07653791130184" y="280.5" transform="rotate(0 122.07653791130184 280.5)" text-anchor="middle" fill="black" font-size="10" >1.0</text></g><g ><line class="xAxisTick" x1="170.28826895565092" x2="170.28826895565092" y1="268.75" y2="253.75" stroke="black" stroke-width="1" ></line><text class="xAxisTickLabel" x="170.28826895565092" y="280.5" transform="rotate(0 170.28826895565092 280.5)" text-anchor="middle" fill="black" font-size="10" >2.0</text></g><g ><line class="xAxisTick" x1="218.49999999999997" x2="218.49999999999997" y1="268.75" y2="253.75" stroke="black" stroke-width="1" ></line><text class="xAxisTickLabel" x="218.49999999999997" y="280.5" transform="rotate(0 218.49999999999997 280.5)" text-anchor="middle" fill="black" font-size="10" >3.0</text></g><g ><line class="xAxisTick" x1="266.71173104434905" x2="266.71173104434905" y1="268.75" y2="253.75" stroke="black" stroke-width="1" ></line><text class="xAxisTickLabel" x="266.71173104434905" y="280.5" transform="rotate(0 266.71173104434905 280.5)" text-anchor="middle" fill="black" font-size="10" >4.0</text></g><g ><line class="xAxisTick" x1="314.9234620886981" x2="314.9234620886981" y1="268.75" y2="253.75" stroke="black" stroke-width="1" ></line><text class="xAxisTickLabel" x="314.9234620886981" y="280.5" transform="rotate(0 314.9234620886981 280.5)" text-anchor="middle" fill="black" font-size="10" >5.0</text></g><g ><line class="xAxisTick" x1="363.1351931330472" x2="363.1351931330472" y1="268.75" y2="253.75" stroke="black" stroke-width="1" ></line><text class="xAxisTickLabel" x="363.1351931330472" y="280.5" transform="rotate(0 363.1351931330472 280.5)" text-anchor="middle" fill="black" font-size="10" >6.0</text></g><g ><line class="xAxisLine" stroke="black" stroke-width="1" x1="40" x2="397" y1="265" y2="265" ></line></g></g><g ><g ><line class="yAxisTick" x1="36.25" x2="51.25" y1="255" y2="255" stroke="black" stroke-width="1" ></line><text class="yAxisTickLabel" x="32" y="257.5" transform="rotate(0 32 257.5)" text-anchor="end" fill="black" font-size="10" >0.0</text></g><g ><line class="yAxisTick" x1="36.25" x2="51.25" y1="224.75" y2="224.75" stroke="black" stroke-width="1" ></line><text class="yAxisTickLabel" x="32" y="227.25" transform="rotate(0 32 227.25)" text-anchor="end" fill="black" font-size="10" >0.5</text></g><g ><line class="yAxisTick" x1="36.25" x2="51.25" y1="194.50000000000003" y2="194.50000000000003" stroke="black" stroke-width="1" ></line><text class="yAxisTickLabel" x="32" y="197.00000000000003" transform="rotate(0 32 197.00000000000003)" text-anchor="end" fill="black" font-size="10" >1.0</text></g><g ><line class="yAxisTick" x1="36.25" x2="51.25" y1="164.25000000000003" y2="164.25000000000003" stroke="black" stroke-width="1" ></line><text class="yAxisTickLabel" x="32" y="166.75000000000003" transform="rotate(0 32 166.75000000000003)" text-anchor="end" fill="black" font-size="10" >1.5</text></g><g ><line class="yAxisTick" x1="36.25" x2="51.25" y1="134.00000000000003" y2="134.00000000000003" stroke="black" stroke-width="1" ></line><text class="yAxisTickLabel" x="32" y="136.50000000000003" transform="rotate(0 32 136.50000000000003)" text-anchor="end" fill="black" font-size="10" >2.0</text></g><g ><line class="yAxisTick" x1="36.25" x2="51.25" y1="103.75000000000006" y2="103.75000000000006" stroke="black" stroke-width="1" ></line><text class="yAxisTickLabel" x="32" y="106.25000000000006" transform="rotate(0 32 106.25000000000006)" text-anchor="end" fill="black" font-size="10" >2.5</text></g><g ><line class="yAxisTick" x1="36.25" x2="51.25" y1="73.50000000000006" y2="73.50000000000006" stroke="black" stroke-width="1" ></line><text class="yAxisTickLabel" x="32" y="76.00000000000006" transform="rotate(0 32 76.00000000000006)" text-anchor="end" fill="black" font-size="10" >3.0</text></g><g ><line class="yAxisTick" x1="36.25" x2="51.25" y1="43.25000000000006" y2="43.25000000000006" stroke="black" stroke-width="1" ></line><text class="yAxisTickLabel" x="32" y="45.75000000000006" transform="rotate(0 32 45.75000000000006)" text-anchor="end" fill="black" font-size="10" >3.5</text></g><g ><line class="yAxisTick" x1="36.25" x2="51.25" y1="13.000000000000028" y2="13.000000000000028" stroke="black" stroke-width="1" ></line><text class="yAxisTickLabel" x="32" y="15.500000000000028" transform="rotate(0 32 15.500000000000028)" text-anchor="end" fill="black" font-size="10" >4.0</text></g><g ><line class="yAxisLine" stroke="black" stroke-width="1" x1="40" x2="40" y1="265" y2="3" ></line></g></g></g><g ><g ><rect x="50" y="194.50000000000003" height="60.499999999999986" width="47.72961373390557" fill="blue" opacity="1" ></rect><rect x="98.21173104434907" y="134.00000000000003" height="120.99999999999997" width="47.72961373390557" fill="blue" opacity="1" ></rect><rect x="146.4234620886981" y="134.00000000000003" height="120.99999999999997" width="47.72961373390557" fill="blue" opacity="1" ></rect><rect x="194.63519313304718" y="73.50000000000006" height="181.49999999999994" width="47.72961373390557" fill="blue" opacity="1" ></rect><rect x="242.84692417739626" y="103.75000000000006" height="151.24999999999997" width="47.72961373390557" fill="blue" opacity="1" ></rect><rect x="291.0586552217453" y="13.000000000000028" height="241.99999999999994" width="47.72961373390557" fill="blue" opacity="1" ></rect><rect x="339.2703862660944" y="194.50000000000003" height="60.499999999999986" width="47.72961373390557" fill="blue" opacity="1" ></rect></g></g></g></svg>