<svg width="550" height="400"  ><g ><g ><g ><g ><line class="xAxisTick" x1="84.48712446351931" x2="84.48712446351931" y1="368.75" y2="353.75" stroke="black" stroke-width="1" ></line><text class="xAxisTickLabel" x="84.48712446351931" y="380.5" transform="rotate(0 84.48712446351931 380.5)" text-anchor="middle" fill="black" font-size="10" >0.0</text></g><g ><line class="xAxisTick" x1="154.15808297567952" x2="154.15808297567952" y1="368.75" y2="353.75" stroke="black" stroke-width="1" ></line><text class="xAxisTickLabel" x="154.15808297567952" y="380.5" transform="rotate(0 154.15808297567952 380.5)" text-anchor="middle" fill="black" font-size="10" >1.0</text></g><g ><line class="xAxisTick" x1="223.8290414878398" x2="223.8290414878398" y1="368.75" y2="353.75" stroke="black" stroke-width="1" ></line><text class="xAxisTickLabel" x="223.8290414878398" y="380.5" transform="rotate(0 223.8290414878398 380.5)" text-anchor="middle" fill="black" font-size="10" >2.0</text></g><g ><line class="xAxisTick" x1="293.5" x2="293.5" y1="368.75" y2="353.75" stroke="black" stroke-width="1" ></line><text class="xAxisTickLabel" x="293.5" y="380.5" transform="rotate(0 293.5 380.5)" text-anchor="middle" fill="black" font-size="10" >3.0</text></g><g ><line class="xAxisTick" x1="363.1709585121602" x2="363.1709585121602" y1="368.75" y2="353.75" stroke="black" stroke-width="1" ></line><text class="xAxisTickLabel" x="363.1709585121602" y="380.5" transform="rotate(0 363.1709585121602 380.5)" text-anchor="middle" fill="black" font-size="10" >4.0</text></g><g ><line class="xAxisTick" x1="432.8419170243205" x2="432.8419170243205" y1="368.75" y2="353.75" stroke="black" stroke-width="1" ></line><text class="xAxisTickLabel" x="432.8419170243205" y="380.5" transform="rotate(0 432.8419170243205 380.5)" text-anchor="middle" fill="black" font-size="10" >5.0</text></g><g ><line class="xAxisTick" x1="502.5128755364807" x2="502.5128755364807" y1="368.75" y2="353.75" stroke="black" stroke-width="1" ></line><text class="xAxisTickLabel" x="502.5128755364807" y="380.5" transform="rotate(0 502.5128755364807 380.5)" text-anchor="middle" fill="black" font-size="10" >6.0</text></g><g ><line class="xAxisLine" stroke="black" stroke-width="1" x1="40" x2="547" y1="365" y2="365" ></line></g></g><g ><g ><line class="yAxisTick" x1="36.25" x2="51.25" y1="355" y2="355" stroke="black" stroke-width="1" ></line><text class="yAxisTickLabel" x="32" y="357.5" transform="rotate(0 32 357.5)" text-anchor="end" fill="black" font-size="10" >0.0</text></g><g ><line class="yAxisTick" x1="36.25" x2="51.25" y1="312.25" y2="312.25" stroke="black" stroke-width="1" ></line><text class="yAxisTickLabel" x="32" y="314.75" transform="rotate(0 32 314.75)" text-anchor="end" fill="black" font-size="10" >0.5</text></g><g ><line class="yAxisTick" x1="36.25" x2="51.25" y1="269.5" y2="269.5" stroke="black" stroke-width="1" ></line><text class="yAxisTickLabel" x="32" y="272" transform="rotate(0 32 272)" text-anchor="end" fill="black" font-size="10" >1.0</text></g><g ><line class="yAxisTick" x1="36.25" x2="51.25" y1="226.75" y2="226.75" stroke="black" stroke-width="1" ></line><text class="yAxisTickLabel" x="32" y="229.25" transform="rotate(0 32 229.25)" text-anchor="end" fill="black" font-size="10" >1.5</text></g><g ><line class="yAxisTick" x1="36.25" x2="51.25" y1="184.00000000000003" y2="184.00000000000003" stroke="black" stroke-width="1" ></line><text class="yAxisTickLabel" x="32" y="186.50000000000003" transform="rotate(0 32 186.50000000000003)" text-anchor="end" fill="black" font-size="10" >2.0</text></g><g ><line class="yAxisTick" x1="36.25" x2="51.25" y1="141.25000000000003" y2="141.25000000000003" stroke="black" stroke-width="1" ></line><text class="yAxisTickLabel" x="32" y="143.75000000000003" transform="rotate(0 32 143.75000000000003)" text-anchor="end" fill="black" font-size="10" >2.5</text></g><g ><line class="yAxisTick" x1="36.25" x2="51.25" y1="98.5" y2="98.5" stroke="black" stroke-width="1" ></line><text class="yAxisTickLabel" x="32" y="101" transform="rotate(0 32 101)" text-anchor="end" fill="black" font-size="10" >3.0</text></g><g ><line class="yAxisTick" x1="36.25" x2="51.25" y1="55.75" y2="55.75" stroke="black" stroke-width="1" ></line><text class="yAxisTickLabel" x="32" y="58.25" transform="rotate(0 32 58.25)" text-anchor="end" fill="black" font-size="10" >3.5</text></g><g ><line class="yAxisTick" x1="36.25" x2="51.25" y1="13" y2="13" stroke="black" stroke-width="1" ></line><text class="yAxisTickLabel" x="32" y="15.5" transform="rotate(0 32 15.5)" text-anchor="end" fill="black" font-size="10" >4.0</text></g><g ><line class="yAxisLine" stroke="black" stroke-width="1" x1="40" x2="40" y1="365" y2="3" ></line></g></g></g><g ><g ><rect x="50" y="269.5" height="85.5" width="68.97424892703863" fill="blue" opacity="1" ></rect><rect x="119.67095851216023" y="184.00000000000003" height="171" width="68.97424892703863" fill="blue" opacity="1" ></rect><rect x="189.34191702432045" y="184.00000000000003" height="171" width="68.97424892703863" fill="blue" opacity="1" ></rect><rect x="259.0128755364807" y="98.5" height="256.5" width="68.97424892703863" fill="blue" opacity="1" ></rect><rect x="328.6838340486409" y="141.25000000000003" height="213.75" width="68.97424892703863" fill="blue" opacity="1" ></rect><rect x="398.3547925608011" y="13" height="342" width="68.97424892703863" fill="blue" opacity="1" ></rect><rect x="468.0257510729614" y="269.5" height="85.5" width="68.97424892703863" fill="blue" opacity="1" ></rect></g></g></g></svg>