<svg width="550" height="400"  ><g ><g ><g ><g ><line class="xAxisTick" x1="50" x2="50" y1="368.75" y2="353.75" stroke="black" stroke-width="1" ></line><text class="xAxisTickLabel" x="50" y="380.5" transform="rotate(0 50 380.5)" text-anchor="middle" fill="black" font-size="10" >0.0</text></g><g ><line class="xAxisTick" x1="119.57142857142858" x2="119.57142857142858" y1="368.75" y2="353.75" stroke="black" stroke-width="1" ></line><text class="xAxisTickLabel" x="119.57142857142858" y="380.5" transform="rotate(0 119.57142857142858 380.5)" text-anchor="middle" fill="black" font-size="10" >1.0</text></g><g ><line class="xAxisTick" x1="189.14285714285717" x2="189.14285714285717" y1="368.75" y2="353.75" stroke="black" stroke-width="1" ></line><text class="xAxisTickLabel" x="189.14285714285717" y="380.5" transform="rotate(0 189.14285714285717 380.5)" text-anchor="middle" fill="black" font-size="10" >2.0</text></g><g ><line class="xAxisTick" x1="258.7142857142858" x2="258.7142857142858" y1="368.75" y2="353.75" stroke="black" stroke-width="1" ></line><text class="xAxisTickLabel" x="258.7142857142858" y="380.5" transform="rotate(0 258.7142857142858 380.5)" text-anchor="middle" fill="black" font-size="10" >3.0</text></g><g ><line class="xAxisTick" x1="328.28571428571433" x2="328.28571428571433" y1="368.75" y2="353.75" stroke="black" stroke-width="1" ></line><text class="xAxisTickLabel" x="328.28571428571433" y="380.5" transform="rotate(0 328.28571428571433 380.5)" text-anchor="middle" fill="black" font-size="10" >4.0</text></g><g ><line class="xAxisTick" x1="397.8571428571429" x2="397.8571428571429" y1="368.75" y2="353.75" stroke="black" stroke-width="1" ></line><text class="xAxisTickLabel" x="397.8571428571429" y="380.5" transform="rotate(0 397.8571428571429 380.5)" text-anchor="middle" fill="black" font-size="10" >5.0</text></g><g ><line class="xAxisTick" x1="467.4285714285715" x2="467.4285714285715" y1="368.75" y2="353.75" stroke="black" stroke-width="1" ></line><text class="xAxisTickLabel" x="467.4285714285715" y="380.5" transform="rotate(0 467.4285714285715 380.5)" text-anchor="middle" fill="black" font-size="10" >6.0</text></g><g ><line class="xAxisTick" x1="537" x2="537" y1="368.75" y2="353.75" stroke="black" stroke-width="1" ></line><text class="xAxisTickLabel" x="537" y="380.5" transform="rotate(0 537 380.5)" text-anchor="middle" fill="black" font-size="10" >7.0</text></g><g ><line class="xAxisLine" stroke="black" stroke-width="1" x1="40" x2="547" y1="365" y2="365" ></line></g></g><g ><g ><line class="yAxisTick" x1="36.25" x2="51.25" y1="355" y2="355" stroke="black" stroke-width="1" ></line><text class="yAxisTickLabel" x="32" y="357.5" transform="rotate(0 32 357.5)" text-anchor="end" fill="black" font-size="10" >0.0</text></g><g ><line class="yAxisTick" x1="36.25" x2="51.25" y1="317.82608695652175" y2="317.82608695652175" stroke="black" stroke-width="1" ></line><text class="yAxisTickLabel" x="32" y="320.32608695652175" transform="rotate(0 32 320.32608695652175)" text-anchor="end" fill="black" font-size="10" >1.0</text></g><g ><line class="yAxisTick" x1="36.25" x2="51.25" y1="280.6521739130435" y2="280.6521739130435" stroke="black" stroke-width="1" ></line><text class="yAxisTickLabel" x="32" y="283.1521739130435" transform="rotate(0 32 283.1521739130435)" text-anchor="end" fill="black" font-size="10" >2.0</text></g><g ><line class="yAxisTick" x1="36.25" x2="51.25" y1="243.47826086956522" y2="243.47826086956522" stroke="black" stroke-width="1" ></line><text class="yAxisTickLabel" x="32" y="245.97826086956522" transform="rotate(0 32 245.97826086956522)" text-anchor="end" fill="black" font-size="10" >3.0</text></g><g ><line class="yAxisTick" x1="36.25" x2="51.25" y1="206.30434782608697" y2="206.30434782608697" stroke="black" stroke-width="1" ></line><text class="yAxisTickLabel" x="32" y="208.80434782608697" transform="rotate(0 32 208.80434782608697)" text-anchor="end" fill="black" font-size="10" >4.0</text></g><g ><line class="yAxisTick" x1="36.25" x2="51.25" y1="169.13043478260872" y2="169.13043478260872" stroke="black" stroke-width="1" ></line><text class="yAxisTickLabel" x="32" y="171.63043478260872" transform="rotate(0 32 171.63043478260872)" text-anchor="end" fill="black" font-size="10" >5.0</text></g><g ><line class="yAxisTick" x1="36.25" x2="51.25" y1="131.95652173913047" y2="131.95652173913047" stroke="black" stroke-width="1" ></line><text class="yAxisTickLabel" x="32" y="134.45652173913047" transform="rotate(0 32 134.45652173913047)" text-anchor="end" fill="black" font-size="10" >6.0</text></g><g ><line class="yAxisTick" x1="36.25" x2="51.25" y1="94.78260869565219" y2="94.78260869565219" stroke="black" stroke-width="1" ></line><text class="yAxisTickLabel" x="32" y="97.28260869565219" transform="rotate(0 32 97.28260869565219)" text-anchor="end" fill="black" font-size="10" >7.0</text></g><g ><line class="yAxisTick" x1="36.25" x2="51.25" y1="57.608695652173935" y2="57.608695652173935" stroke="black" stroke-width="1" ></line><text class="yAxisTickLabel" x="32" y="60.108695652173935" transform="rotate(0 32 60.108695652173935)" text-anchor="end" fill="black" font-size="10" >8.0</text></g><g ><line class="yAxisTick" x1="36.25" x2="51.25" y1="20.434782608695684" y2="20.434782608695684" stroke="black" stroke-width="1" ></line><text class="yAxisTickLabel" x="32" y="22.934782608695684" transform="rotate(0 32 22.934782608695684)" text-anchor="end" fill="black" font-size="10" >9.0</text></g><g ><line class="yAxisLine" stroke="black" stroke-width="1" x1="40" x2="40" y1="365" y2="3" ></line></g></g></g><g ><g ><g ><path d="M 50,317.82608695652175 L 119.57142857142858,280.6521739130435 L 189.14285714285717,280.6521739130435 L 258.7142857142858,243.47826086956522 L 328.28571428571433,262.0652173913044 L 397.8571428571429,206.30434782608697 L 467.4285714285715,317.82608695652175" stroke="blue" stroke-width="1" opacity="1" fill="none" ></path></g><circle cx="50" cy="317.82608695652175" r="3" fill="blue" opacity="1" stroke="blue" stroke-width="0" ></circle><circle cx="119.57142857142858" cy="280.6521739130435" r="3" fill="blue" opacity="1" stroke="blue" stroke-width="0" ></circle><circle cx="189.14285714285717" cy="280.6521739130435" r="3" fill="blue" opacity="1" stroke="blue" stroke-width="0" ></circle><circle cx="258.7142857142858" cy="243.47826086956522" r="3" fill="blue" opacity="1" stroke="blue" stroke-width="0" ></circle><circle cx="328.28571428571433" cy="262.0652173913044" r="3" fill="blue" opacity="1" stroke="blue" stroke-width="0" ></circle><circle cx="397.8571428571429" cy="206.30434782608697" r="3" fill="blue" opacity="1" stroke="blue" stroke-width="0" ></circle><circle cx="467.4285714285715" cy="317.82608695652175" r="3" fill="blue" opacity="1" stroke="blue" stroke-width="0" ></circle></g><g ><g ><path d="M 50,169.13043478260872 L 119.57142857142858,243.47826086956522 L 189.14285714285717,94.78260869565219 L 258.7142857142858,317.82608695652175 L 328.28571428571433,131.95652173913047 L 397.8571428571429,317.82608695652175 L 467.4285714285715,206.30434782608697" stroke="red" stroke-width="1" opacity="1" fill="none" ></path></g><circle cx="50" cy="169.13043478260872" r="3" fill="none" opacity="1" stroke="red" stroke-width="1" ></circle><circle cx="119.57142857142858" cy="243.47826086956522" r="3" fill="none" opacity="1" stroke="red" stroke-width="1" ></circle><circle cx="189.14285714285717" cy="94.78260869565219" r="3" fill="none" opacity="1" stroke="red" stroke-width="1" ></circle><circle cx="258.7142857142858" cy="317.82608695652175" r="3" fill="none" opacity="1" stroke="red" stroke-width="1" ></circle><circle cx="328.28571428571433" cy="131.95652173913047" r="3" fill="none" opacity="1" stroke="red" stroke-width="1" ></circle><circle cx="397.8571428571429" cy="317.82608695652175" r="3" fill="none" opacity="1" stroke="red" stroke-width="1" ></circle><circle cx="467.4285714285715" cy="206.30434782608697" r="3" fill="none" opacity="1" stroke="red" stroke-width="1" ></circle></g><g ><g ><path d="M 50,299.2391304347826 L 119.57142857142858,355 L 189.14285714285717,243.47826086956522 L 258.7142857142858,57.608695652173935 L 328.28571428571433,206.30434782608697 L 397.8571428571429,280.6521739130435 L 467.4285714285715,317.82608695652175" stroke="violet" stroke-width="1" opacity="1" fill="none" ></path></g><rect x="47" y="296.2391304347826" width="6" height="6" fill="violet" opacity="1" stroke="violet" stroke-width="0" ></rect><rect x="116.57142857142858" y="352" width="6" height="6" fill="violet" opacity="1" stroke="violet" stroke-width="0" ></rect><rect x="186.14285714285717" y="240.47826086956522" width="6" height="6" fill="violet" opacity="1" stroke="violet" stroke-width="0" ></rect><rect x="255.71428571428578" y="54.608695652173935" width="6" height="6" fill="violet" opacity="1" stroke="violet" stroke-width="0" ></rect><rect x="325.28571428571433" y="203.30434782608697" width="6" height="6" fill="violet" opacity="1" stroke="violet" stroke-width="0" ></rect><rect x="394.8571428571429" y="277.6521739130435" width="6" height="6" fill="violet" opacity="1" stroke="violet" stroke-width="0" ></rect><rect x="464.4285714285715" y="314.82608695652175" width="6" height="6" fill="violet" opacity="1" stroke="violet" stroke-width="0" ></rect></g><g ><g ><path d="M 223.92857142857147,169.13043478260872 L 328.28571428571433,239.01739130434783 L 397.8571428571429,13.000000000000057 L 537,295.52173913043475" stroke="olive" stroke-width="1" opacity="1" fill="none" ></path></g><rect x="220.92857142857147" y="166.13043478260872" width="6" height="6" fill="none" opacity="1" stroke="olive" stroke-width="1" ></rect><rect x="325.28571428571433" y="236.01739130434783" width="6" height="6" fill="none" opacity="1" stroke="olive" stroke-width="1" ></rect><rect x="394.8571428571429" y="10.000000000000057" width="6" height="6" fill="none" opacity="1" stroke="olive" stroke-width="1" ></rect><rect x="534" y="292.52173913043475" width="6" height="6" fill="none" opacity="1" stroke="olive" stroke-width="1" ></rect></g></g></g></svg>