<svg width="400" height="300"  ><g ><g ><g ><g ><line class="xAxisTick" x1="50" x2="50" y1="268.75" y2="253.75" stroke="black" stroke-width="1" ></line><text class="xAxisTickLabel" x="50" y="280.5" transform="rotate(0 50 280.5)" text-anchor="middle" fill="black" font-size="10" >0.0</text></g><g ><line class="xAxisTick" x1="98.14285714285715" x2="98.14285714285715" y1="268.75" y2="253.75" stroke="black" stroke-width="1" ></line><text class="xAxisTickLabel" x="98.14285714285715" y="280.5" transform="rotate(0 98.14285714285715 280.5)" text-anchor="middle" fill="black" font-size="10" >1.0</text></g><g ><line class="xAxisTick" x1="146.28571428571428" x2="146.28571428571428" y1="268.75" y2="253.75" stroke="black" stroke-width="1" ></line><text class="xAxisTickLabel" x="146.28571428571428" y="280.5" transform="rotate(0 146.28571428571428 280.5)" text-anchor="middle" fill="black" font-size="10" >2.0</text></g><g ><line class="xAxisTick" x1="194.42857142857144" x2="194.42857142857144" y1="268.75" y2="253.75" stroke="black" stroke-width="1" ></line><text class="xAxisTickLabel" x="194.42857142857144" y="280.5" transform="rotate(0 194.42857142857144 280.5)" text-anchor="middle" fill="black" font-size="10" >3.0</text></g><g ><line class="xAxisTick" x1="242.57142857142858" x2="242.57142857142858" y1="268.75" y2="253.75" stroke="black" stroke-width="1" ></line><text class="xAxisTickLabel" x="242.57142857142858" y="280.5" transform="rotate(0 242.57142857142858 280.5)" text-anchor="middle" fill="black" font-size="10" >4.0</text></g><g ><line class="xAxisTick" x1="290.7142857142857" x2="290.7142857142857" y1="268.75" y2="253.75" stroke="black" stroke-width="1" ></line><text class="xAxisTickLabel" x="290.7142857142857" y="280.5" transform="rotate(0 290.7142857142857 280.5)" text-anchor="middle" fill="black" font-size="10" >5.0</text></g><g ><line class="xAxisTick" x1="338.8571428571429" x2="338.8571428571429" y1="268.75" y2="253.75" stroke="black" stroke-width="1" ></line><text class="xAxisTickLabel" x="338.8571428571429" y="280.5" transform="rotate(0 338.8571428571429 280.5)" text-anchor="middle" fill="black" font-size="10" >6.0</text></g><g ><line class="xAxisTick" x1="387" x2="387" y1="268.75" y2="253.75" stroke="black" stroke-width="1" ></line><text class="xAxisTickLabel" x="387" y="280.5" transform="rotate(0 387 280.5)" text-anchor="middle" fill="black" font-size="10" >7.0</text></g><g ><line class="xAxisLine" stroke="black" stroke-width="1" x1="40" x2="397" y1="265" y2="265" ></line></g></g><g ><g ><line class="yAxisTick" x1="36.25" x2="51.25" y1="255" y2="255" stroke="black" stroke-width="1" ></line><text class="yAxisTickLabel" x="32" y="257.5" transform="rotate(0 32 257.5)" text-anchor="end" fill="black" font-size="10" >0.0</text></g><g ><line class="yAxisTick" x1="36.25" x2="51.25" y1="228.69565217391303" y2="228.69565217391303" stroke="black" stroke-width="1" ></line><text class="yAxisTickLabel" x="32" y="231.19565217391303" transform="rotate(0 32 231.19565217391303)" text-anchor="end" fill="black" font-size="10" >1.0</text></g><g ><line class="yAxisTick" x1="36.25" x2="51.25" y1="202.39130434782606" y2="202.39130434782606" stroke="black" stroke-width="1" ></line><text class="yAxisTickLabel" x="32" y="204.89130434782606" transform="rotate(0 32 204.89130434782606)" text-anchor="end" fill="black" font-size="10" >2.0</text></g><g ><line class="yAxisTick" x1="36.25" x2="51.25" y1="176.0869565217391" y2="176.0869565217391" stroke="black" stroke-width="1" ></line><text class="yAxisTickLabel" x="32" y="178.5869565217391" transform="rotate(0 32 178.5869565217391)" text-anchor="end" fill="black" font-size="10" >3.0</text></g><g ><line class="yAxisTick" x1="36.25" x2="51.25" y1="149.78260869565213" y2="149.78260869565213" stroke="black" stroke-width="1" ></line><text class="yAxisTickLabel" x="32" y="152.28260869565213" transform="rotate(0 32 152.28260869565213)" text-anchor="end" fill="black" font-size="10" >4.0</text></g><g ><line class="yAxisTick" x1="36.25" x2="51.25" y1="123.47826086956516" y2="123.47826086956516" stroke="black" stroke-width="1" ></line><text class="yAxisTickLabel" x="32" y="125.97826086956516" transform="rotate(0 32 125.97826086956516)" text-anchor="end" fill="black" font-size="10" >5.0</text></g><g ><line class="yAxisTick" x1="36.25" x2="51.25" y1="97.17391304347822" y2="97.17391304347822" stroke="black" stroke-width="1" ></line><text class="yAxisTickLabel" x="32" y="99.67391304347822" transform="rotate(0 32 99.67391304347822)" text-anchor="end" fill="black" font-size="10" >6.0</text></g><g ><line class="yAxisTick" x1="36.25" x2="51.25" y1="70.86956521739125" y2="70.86956521739125" stroke="black" stroke-width="1" ></line><text class="yAxisTickLabel" x="32" y="73.36956521739125" transform="rotate(0 32 73.36956521739125)" text-anchor="end" fill="black" font-size="10" >7.0</text></g><g ><line class="yAxisTick" x1="36.25" x2="51.25" y1="44.565217391304316" y2="44.565217391304316" stroke="black" stroke-width="1" ></line><text class="yAxisTickLabel" x="32" y="47.065217391304316" transform="rotate(0 32 47.065217391304316)" text-anchor="end" fill="black" font-size="10" >8.0</text></g><g ><line class="yAxisTick" x1="36.25" x2="51.25" y1="18.260869565217348" y2="18.260869565217348" stroke="black" stroke-width="1" ></line><text class="yAxisTickLabel" x="32" y="20.760869565217348" transform="rotate(0 32 20.760869565217348)" text-anchor="end" fill="black" font-size="10" >9.0</text></g><g ><line class="yAxisLine" stroke="black" stroke-width="1" x1="40" x2="40" y1="265" y2="3" ></line></g></g></g><g ><g ><g ><path d="M 50,228.69565217391303 L 98.14285714285715,202.39130434782606 L 146.28571428571428,202.39130434782606 L 194.42857142857144,176.0869565217391 L 242.57142857142858,189.23913043478257 L 290.7142857142857,149.78260869565213 L 338.8571428571429,228.69565217391303" stroke="blue" stroke-width="1" opacity="1" fill="none" ></path></g><circle cx="50" cy="228.69565217391303" r="3" fill="blue" opacity="1" stroke="blue" stroke-width="0" ></circle><circle cx="98.14285714285715" cy="202.39130434782606" r="3" fill="blue" opacity="1" stroke="blue" stroke-width="0" ></circle><circle cx="146.28571428571428" cy="202.39130434782606" r="3" fill="blue" opacity="1" stroke="blue" stroke-width="0" ></circle><circle cx="194.42857142857144" cy="176.0869565217391" r="3" fill="blue" opacity="1" stroke="blue" stroke-width="0" ></circle><circle cx="242.57142857142858" cy="189.23913043478257" r="3" fill="blue" opacity="1" stroke="blue" stroke-width="0" ></circle><circle cx="290.7142857142857" cy="149.78260869565213" r="3" fill="blue" opacity="1" stroke="blue" stroke-width="0" ></circle><circle cx="338.8571428571429" cy="228.69565217391303" r="3" fill="blue" opacity="1" stroke="blue" stroke-width="0" ></circle></g><g ><g ><path d="M 50,123.47826086956516 L 98.14285714285715,176.0869565217391 L 146.28571428571428,70.86956521739125 L 194.42857142857144,228.69565217391303 L 242.57142857142858,97.17391304347822 L 290.7142857142857,228.69565217391303 L 338.8571428571429,149.78260869565213" stroke="red" stroke-width="1" opacity="1" fill="none" ></path></g><circle cx="50" cy="123.47826086956516" r="3" fill="none" opacity="1" stroke="red" stroke-width="1" ></circle><circle cx="98.14285714285715" cy="176.0869565217391" r="3" fill="none" opacity="1" stroke="red" stroke-width="1" ></circle><circle cx="146.28571428571428" cy="70.86956521739125" r="3" fill="none" opacity="1" stroke="red" stroke-width="1" ></circle><circle cx="194.42857142857144" cy="228.69565217391303" r="3" fill="none" opacity="1" stroke="red" stroke-width="1" ></circle><circle cx="242.57142857142858" cy="97.17391304347822" r="3" fill="none" opacity="1" stroke="red" stroke-width="1" ></circle><circle cx="290.7142857142857" cy="228.69565217391303" r="3" fill="none" opacity="1" stroke="red" stroke-width="1" ></circle><circle cx="338.8571428571429" cy="149.78260869565213" r="3" fill="none" opacity="1" stroke="red" stroke-width="1" ></circle></g><g ><g ><path d="M 50,215.54347826086956 L 98.14285714285715,255 L 146.28571428571428,176.0869565217391 L 194.42857142857144,44.565217391304316 L 242.57142857142858,149.78260869565213 L 290.7142857142857,202.39130434782606 L 338.8571428571429,228.69565217391303" stroke="violet" stroke-width="1" opacity="1" fill="none" ></path></g><rect x="47" y="212.54347826086956" width="6" height="6" fill="violet" opacity="1" stroke="violet" stroke-width="0" ></rect><rect x="95.14285714285715" y="252" width="6" height="6" fill="violet" opacity="1" stroke="violet" stroke-width="0" ></rect><rect x="143.28571428571428" y="173.0869565217391" width="6" height="6" fill="violet" opacity="1" stroke="violet" stroke-width="0" ></rect><rect x="191.42857142857144" y="41.565217391304316" width="6" height="6" fill="violet" opacity="1" stroke="violet" stroke-width="0" ></rect><rect x="239.57142857142858" y="146.78260869565213" width="6" height="6" fill="violet" opacity="1" stroke="violet" stroke-width="0" ></rect><rect x="287.7142857142857" y="199.39130434782606" width="6" height="6" fill="violet" opacity="1" stroke="violet" stroke-width="0" ></rect><rect x="335.8571428571429" y="225.69565217391303" width="6" height="6" fill="violet" opacity="1" stroke="violet" stroke-width="0" ></rect></g><g ><g ><path d="M 170.35714285714286,123.47826086956516 L 242.57142857142858,172.93043478260867 L 290.7142857142857,12.999999999999972 L 387,212.91304347826085" stroke="olive" stroke-width="1" opacity="1" fill="none" ></path></g><rect x="167.35714285714286" y="120.47826086956516" width="6" height="6" fill="none" opacity="1" stroke="olive" stroke-width="1" ></rect><rect x="239.57142857142858" y="169.93043478260867" width="6" height="6" fill="none" opacity="1" stroke="olive" stroke-width="1" ></rect><rect x="287.7142857142857" y="9.999999999999972" width="6" height="6" fill="none" opacity="1" stroke="olive" stroke-width="1" ></rect><rect x="384" y="209.91304347826085" width="6" height="6" fill="none" opacity="1" stroke="olive" stroke-width="1" ></rect></g></g></g></svg>