<svg width="400" height="300"  ><g ><g ></g><g ><g ><path fill="#3A83F1" stroke="none" stroke-width="0" d="M199.99999999999994,150 L347,150 A147.00000000000003,147.00000000000003 0 0,0 258.6378404491039,15.20161845383518 L 199.99999999999994,150 A0,0 0 0,1 199.99999999999994,150" ></path><path fill="#DC3FF1" stroke="none" stroke-width="0" d="M199.99999999999994,150 L258.6378404491039,15.20161845383518 A147.00000000000003,147.00000000000003 0 0,0 77.73167301050415,68.39450867012845 L 199.99999999999994,150 A0,0 0 0,1 199.99999999999994,150" ></path><path fill="#F2693F" stroke="none" stroke-width="0" d="M199.99999999999994,150 L77.73167301050415,68.39450867012845 A147.00000000000003,147.00000000000003 0 0,0 175.14065011181893,294.8827550923056 L 199.99999999999994,150 A0,0 0 0,1 199.99999999999994,150" ></path><path fill="#8AF23F" stroke="none" stroke-width="0" d="M199.99999999999994,150 L175.14065011181893,294.8827550923056 A147.00000000000003,147.00000000000003 0 0,0 233.2194939849541,293.19729473486433 L 199.99999999999994,150 A0,0 0 0,1 199.99999999999994,150" ></path><path fill="#758d99" stroke="none" stroke-width="0" d="M199.99999999999994,150 L233.2194939849541,293.19729473486433 A147.00000000000003,147.00000000000003 0 0,0 256.3951535348336,285.7519305858394 L 199.99999999999994,150 A0,0 0 0,1 199.99999999999994,150" ></path><path fill="#F1DC41" stroke="none" stroke-width="0" d="M199.99999999999994,150 L256.3951535348336,285.7519305858394 A147.00000000000003,147.00000000000003 0 0,0 309.5948979672461,247.96917035245787 L 199.99999999999994,150 A0,0 0 0,1 199.99999999999994,150" ></path><path fill="#AC310C" stroke="none" stroke-width="0" d="M199.99999999999994,150 L309.5948979672461,247.96917035245787 A147.00000000000003,147.00000000000003 0 0,0 345.70904251520267,169.4390053578585 L 199.99999999999994,150 A0,0 0 0,1 199.99999999999994,150" ></path><path fill="#40C8F2" stroke="none" stroke-width="0" d="M199.99999999999994,150 L345.70904251520267,169.4390053578585 A147.00000000000003,147.00000000000003 0 0,0 347,150.00000000000017 L 199.99999999999994,150 A0,0 0 0,1 199.99999999999994,150" ></path></g></g></g></svg>