<svg width="550" height="400"  ><g ><g ></g><g ><g ><path fill="#3A83F1" stroke="none" stroke-width="0" d="M275,200.00000000000006 L435,200.00000000000006 A160,160 0 0,0 338.82349980854855,53.280673147031564 L 275,200.00000000000006 A0,0 0 0,1 275,200.00000000000006" ></path><path fill="#DC3FF1" stroke="none" stroke-width="0" d="M275,200.00000000000006 L338.82349980854855,53.280673147031564 A160,160 0 0,0 141.91882776653523,111.17769651170451 L 275,200.00000000000006 A0,0 0 0,1 275,200.00000000000006" ></path><path fill="#F2693F" stroke="none" stroke-width="0" d="M275,200.00000000000006 L141.91882776653523,111.17769651170451 A160,160 0 0,0 247.9422042033404,357.6955157467272 L 275,200.00000000000006 A0,0 0 0,1 275,200.00000000000006" ></path><path fill="#8AF23F" stroke="none" stroke-width="0" d="M275,200.00000000000006 L247.9422042033404,357.6955157467272 A160,160 0 0,0 311.157272364576,355.8610010719612 L 275,200.00000000000006 A0,0 0 0,1 275,200.00000000000006" ></path><path fill="#758d99" stroke="none" stroke-width="0" d="M275,200.00000000000006 L311.157272364576,355.8610010719612 A160,160 0 0,0 336.38248003791415,347.7572033587368 L 275,200.00000000000006 A0,0 0 0,1 275,200.00000000000006" ></path><path fill="#F1DC41" stroke="none" stroke-width="0" d="M275,200.00000000000006 L336.38248003791415,347.7572033587368 A160,160 0 0,0 394.28696377387337,306.6331105877093 L 275,200.00000000000006 A0,0 0 0,1 275,200.00000000000006" ></path><path fill="#AC310C" stroke="none" stroke-width="0" d="M275,200.00000000000006 L394.28696377387337,306.6331105877093 A160,160 0 0,0 433.5948762070234,221.158101069778 L 275,200.00000000000006 A0,0 0 0,1 275,200.00000000000006" ></path><path fill="#40C8F2" stroke="none" stroke-width="0" d="M275,200.00000000000006 L433.5948762070234,221.158101069778 A160,160 0 0,0 435,200.00000000000023 L 275,200.00000000000006 A0,0 0 0,1 275,200.00000000000006" ></path></g></g></g></svg>