<svg width="550" height="400"  ><g ><g ><g ><g ><line class="xAxisTick" x1="50" x2="50" y1="368.75" y2="353.75" stroke="black" stroke-width="1" ></line><text class="xAxisTickLabel" x="50" y="380.5" transform="rotate(0 50 380.5)" text-anchor="middle" fill="black" font-size="10" >0.0</text></g><g ><line class="xAxisTick" x1="131.16666666666666" x2="131.16666666666666" y1="368.75" y2="353.75" stroke="black" stroke-width="1" ></line><text class="xAxisTickLabel" x="131.16666666666666" y="380.5" transform="rotate(0 131.16666666666666 380.5)" text-anchor="middle" fill="black" font-size="10" >1.0</text></g><g ><line class="xAxisTick" x1="212.3333333333333" x2="212.3333333333333" y1="368.75" y2="353.75" stroke="black" stroke-width="1" ></line><text class="xAxisTickLabel" x="212.3333333333333" y="380.5" transform="rotate(0 212.3333333333333 380.5)" text-anchor="middle" fill="black" font-size="10" >2.0</text></g><g ><line class="xAxisTick" x1="293.49999999999994" x2="293.49999999999994" y1="368.75" y2="353.75" stroke="black" stroke-width="1" ></line><text class="xAxisTickLabel" x="293.49999999999994" y="380.5" transform="rotate(0 293.49999999999994 380.5)" text-anchor="middle" fill="black" font-size="10" >3.0</text></g><g ><line class="xAxisTick" x1="374.66666666666663" x2="374.66666666666663" y1="368.75" y2="353.75" stroke="black" stroke-width="1" ></line><text class="xAxisTickLabel" x="374.66666666666663" y="380.5" transform="rotate(0 374.66666666666663 380.5)" text-anchor="middle" fill="black" font-size="10" >4.0</text></g><g ><line class="xAxisTick" x1="455.8333333333333" x2="455.8333333333333" y1="368.75" y2="353.75" stroke="black" stroke-width="1" ></line><text class="xAxisTickLabel" x="455.8333333333333" y="380.5" transform="rotate(0 455.8333333333333 380.5)" text-anchor="middle" fill="black" font-size="10" >5.0</text></g><g ><line class="xAxisTick" x1="537" x2="537" y1="368.75" y2="353.75" stroke="black" stroke-width="1" ></line><text class="xAxisTickLabel" x="537" y="380.5" transform="rotate(0 537 380.5)" text-anchor="middle" fill="black" font-size="10" >6.0</text></g><g ><line class="xAxisLine" stroke="black" stroke-width="1" x1="40" x2="547" y1="365" y2="365" ></line></g></g><g ><g ><line class="yAxisTick" x1="36.25" x2="51.25" y1="355" y2="355" stroke="black" stroke-width="1" ></line><text class="yAxisTickLabel" x="32" y="357.5" transform="rotate(0 32 357.5)" text-anchor="end" fill="black" font-size="10" >1.0</text></g><g ><line class="yAxisTick" x1="36.25" x2="51.25" y1="298" y2="298" stroke="black" stroke-width="1" ></line><text class="yAxisTickLabel" x="32" y="300.5" transform="rotate(0 32 300.5)" text-anchor="end" fill="black" font-size="10" >1.5</text></g><g ><line class="yAxisTick" x1="36.25" x2="51.25" y1="241" y2="241" stroke="black" stroke-width="1" ></line><text class="yAxisTickLabel" x="32" y="243.5" transform="rotate(0 32 243.5)" text-anchor="end" fill="black" font-size="10" >2.0</text></g><g ><line class="yAxisTick" x1="36.25" x2="51.25" y1="184" y2="184" stroke="black" stroke-width="1" ></line><text class="yAxisTickLabel" x="32" y="186.5" transform="rotate(0 32 186.5)" text-anchor="end" fill="black" font-size="10" >2.5</text></g><g ><line class="yAxisTick" x1="36.25" x2="51.25" y1="127.00000000000003" y2="127.00000000000003" stroke="black" stroke-width="1" ></line><text class="yAxisTickLabel" x="32" y="129.50000000000003" transform="rotate(0 32 129.50000000000003)" text-anchor="end" fill="black" font-size="10" >3.0</text></g><g ><line class="yAxisTick" x1="36.25" x2="51.25" y1="70" y2="70" stroke="black" stroke-width="1" ></line><text class="yAxisTickLabel" x="32" y="72.5" transform="rotate(0 32 72.5)" text-anchor="end" fill="black" font-size="10" >3.5</text></g><g ><line class="yAxisTick" x1="36.25" x2="51.25" y1="13" y2="13" stroke="black" stroke-width="1" ></line><text class="yAxisTickLabel" x="32" y="15.5" transform="rotate(0 32 15.5)" text-anchor="end" fill="black" font-size="10" >4.0</text></g><g ><line class="yAxisLine" stroke="black" stroke-width="1" x1="40" x2="40" y1="365" y2="3" ></line></g></g></g><g ><g ><g ><path d="M 50,355 L 131.16666666666666,241 L 212.3333333333333,241 L 293.49999999999994,127.00000000000003 L 374.66666666666663,184 L 455.8333333333333,13 L 537,355" stroke="blue" stroke-width="1" opacity="1" fill="none" ></path></g><circle cx="50" cy="355" r="3" fill="blue" opacity="1" stroke="blue" stroke-width="0" ></circle><circle cx="131.16666666666666" cy="241" r="3" fill="blue" opacity="1" stroke="blue" stroke-width="0" ></circle><circle cx="212.3333333333333" cy="241" r="3" fill="blue" opacity="1" stroke="blue" stroke-width="0" ></circle><circle cx="293.49999999999994" cy="127.00000000000003" r="3" fill="blue" opacity="1" stroke="blue" stroke-width="0" ></circle><circle cx="374.66666666666663" cy="184" r="3" fill="blue" opacity="1" stroke="blue" stroke-width="0" ></circle><circle cx="455.8333333333333" cy="13" r="3" fill="blue" opacity="1" stroke="blue" stroke-width="0" ></circle><circle cx="537" cy="355" r="3" fill="blue" opacity="1" stroke="blue" stroke-width="0" ></circle></g></g></g></svg>