<svg width="400" height="300"  ><g ><g ><g ><g ><line class="xAxisTickGrid" x1="48.13435506531607" x2="48.13435506531607" y1="265" y2="3" stroke="LightGray" stroke-width="0.5" ></line><line class="xAxisTick" x1="48.13435506531607" x2="48.13435506531607" y1="268.75" y2="253.75" stroke="black" stroke-width="1" ></line><text class="xAxisTickLabel" x="72.20077442987736" y="280.5" transform="rotate(0 72.20077442987736 280.5)" text-anchor="middle" fill="black" font-size="10" >2010</text></g><g ><line class="xAxisTickGrid" x1="96.67725942487326" x2="96.67725942487326" y1="265" y2="3" stroke="LightGray" stroke-width="0.5" ></line><line class="xAxisTick" x1="96.67725942487326" x2="96.67725942487326" y1="268.75" y2="253.75" stroke="black" stroke-width="1" ></line><text class="xAxisTickLabel" x="120.74367878943454" y="280.5" transform="rotate(0 120.74367878943454 280.5)" text-anchor="middle" fill="black" font-size="10" >2011</text></g><g ><line class="xAxisTickGrid" x1="145.22016378443044" x2="145.22016378443044" y1="265" y2="3" stroke="LightGray" stroke-width="0.5" ></line><line class="xAxisTick" x1="145.22016378443044" x2="145.22016378443044" y1="268.75" y2="253.75" stroke="black" stroke-width="1" ></line><text class="xAxisTickLabel" x="169.41957740751104" y="280.5" transform="rotate(0 169.41957740751104 280.5)" text-anchor="middle" fill="black" font-size="10" >2012</text></g><g ><line class="xAxisTickGrid" x1="193.89606240250694" x2="193.89606240250694" y1="265" y2="3" stroke="LightGray" stroke-width="0.5" ></line><line class="xAxisTick" x1="193.89606240250694" x2="193.89606240250694" y1="268.75" y2="253.75" stroke="black" stroke-width="1" ></line><text class="xAxisTickLabel" x="217.96248176706823" y="280.5" transform="rotate(0 217.96248176706823 280.5)" text-anchor="middle" fill="black" font-size="10" >2013</text></g><g ><line class="xAxisTickGrid" x1="242.43896676206413" x2="242.43896676206413" y1="265" y2="3" stroke="LightGray" stroke-width="0.5" ></line><line class="xAxisTick" x1="242.43896676206413" x2="242.43896676206413" y1="268.75" y2="253.75" stroke="black" stroke-width="1" ></line><text class="xAxisTickLabel" x="266.5053861266254" y="280.5" transform="rotate(0 266.5053861266254 280.5)" text-anchor="middle" fill="black" font-size="10" >2014</text></g><g ><line class="xAxisTickGrid" x1="290.98187112162134" x2="290.98187112162134" y1="265" y2="3" stroke="LightGray" stroke-width="0.5" ></line><line class="xAxisTick" x1="290.98187112162134" x2="290.98187112162134" y1="268.75" y2="253.75" stroke="black" stroke-width="1" ></line><text class="xAxisTickLabel" x="315.04829048618257" y="280.5" transform="rotate(0 315.04829048618257 280.5)" text-anchor="middle" fill="black" font-size="10" >2015</text></g><g ><line class="xAxisTickGrid" x1="339.5247754811785" x2="339.5247754811785" y1="265" y2="3" stroke="LightGray" stroke-width="0.5" ></line><line class="xAxisTick" x1="339.5247754811785" x2="339.5247754811785" y1="268.75" y2="253.75" stroke="black" stroke-width="1" ></line><text class="xAxisTickLabel" x="363.7241891042591" y="280.5" transform="rotate(0 363.7241891042591 280.5)" text-anchor="middle" fill="black" font-size="10" >2016</text></g><g ><line class="xAxisTickGrid" x1="388.200674099255" x2="388.200674099255" y1="265" y2="3" stroke="LightGray" stroke-width="0.5" ></line><line class="xAxisTick" x1="388.200674099255" x2="388.200674099255" y1="268.75" y2="253.75" stroke="black" stroke-width="1" ></line></g><g ><line class="xAxisLine" stroke="black" stroke-width="1" x1="40" x2="397" y1="265" y2="265" ></line></g></g><g ><g ><line class="yAxisTick" x1="36.25" x2="51.25" y1="255" y2="255" stroke="black" stroke-width="1" ></line><text class="yAxisTickLabel" x="32" y="257.5" transform="rotate(0 32 257.5)" text-anchor="end" fill="black" font-size="10" >1.0</text></g><g ><line class="yAxisTick" x1="36.25" x2="51.25" y1="214.66666666666666" y2="214.66666666666666" stroke="black" stroke-width="1" ></line><text class="yAxisTickLabel" x="32" y="217.16666666666666" transform="rotate(0 32 217.16666666666666)" text-anchor="end" fill="black" font-size="10" >1.5</text></g><g ><line class="yAxisTick" x1="36.25" x2="51.25" y1="174.33333333333331" y2="174.33333333333331" stroke="black" stroke-width="1" ></line><text class="yAxisTickLabel" x="32" y="176.83333333333331" transform="rotate(0 32 176.83333333333331)" text-anchor="end" fill="black" font-size="10" >2.0</text></g><g ><line class="yAxisTick" x1="36.25" x2="51.25" y1="134" y2="134" stroke="black" stroke-width="1" ></line><text class="yAxisTickLabel" x="32" y="136.5" transform="rotate(0 32 136.5)" text-anchor="end" fill="black" font-size="10" >2.5</text></g><g ><line class="yAxisTick" x1="36.25" x2="51.25" y1="93.66666666666669" y2="93.66666666666669" stroke="black" stroke-width="1" ></line><text class="yAxisTickLabel" x="32" y="96.16666666666669" transform="rotate(0 32 96.16666666666669)" text-anchor="end" fill="black" font-size="10" >3.0</text></g><g ><line class="yAxisTick" x1="36.25" x2="51.25" y1="53.33333333333334" y2="53.33333333333334" stroke="black" stroke-width="1" ></line><text class="yAxisTickLabel" x="32" y="55.83333333333334" transform="rotate(0 32 55.83333333333334)" text-anchor="end" fill="black" font-size="10" >3.5</text></g><g ><line class="yAxisTick" x1="36.25" x2="51.25" y1="13" y2="13" stroke="black" stroke-width="1" ></line><text class="yAxisTickLabel" x="32" y="15.5" transform="rotate(0 32 15.5)" text-anchor="end" fill="black" font-size="10" >4.0</text></g><g ><line class="yAxisLine" stroke="black" stroke-width="1" x1="40" x2="40" y1="265" y2="3" ></line></g></g></g><g ><g ><g ><path d="M 49.99627468458676,255 L 144.15620971627575,174.33333333333331 L 163.833818549699,174.33333333333331 L 202.9396719818217,93.66666666666669 L 242.43896676206413,134 L 323.6929172899394,13 L 386.8707315140617,255" stroke="blue" stroke-width="1" opacity="1" fill="none" ></path></g><circle cx="49.99627468458676" cy="255" r="3" fill="blue" opacity="1" stroke="blue" stroke-width="0" ></circle><circle cx="144.15620971627575" cy="174.33333333333331" r="3" fill="blue" opacity="1" stroke="blue" stroke-width="0" ></circle><circle cx="163.833818549699" cy="174.33333333333331" r="3" fill="blue" opacity="1" stroke="blue" stroke-width="0" ></circle><circle cx="202.9396719818217" cy="93.66666666666669" r="3" fill="blue" opacity="1" stroke="blue" stroke-width="0" ></circle><circle cx="242.43896676206413" cy="134" r="3" fill="blue" opacity="1" stroke="blue" stroke-width="0" ></circle><circle cx="323.6929172899394" cy="13" r="3" fill="blue" opacity="1" stroke="blue" stroke-width="0" ></circle><circle cx="386.8707315140617" cy="255" r="3" fill="blue" opacity="1" stroke="blue" stroke-width="0" ></circle></g></g></g></svg>