<svg width="400" height="300"  ><g ><g ><g ><g ><line class="xAxisTick" x1="50" x2="50" y1="268.75" y2="253.75" stroke="black" stroke-width="1" ></line><text class="xAxisTickLabel" x="50" y="280.5" transform="rotate(0 50 280.5)" text-anchor="middle" fill="black" font-size="10" >0.0</text></g><g ><line class="xAxisTick" x1="106.16666666666666" x2="106.16666666666666" y1="268.75" y2="253.75" stroke="black" stroke-width="1" ></line><text class="xAxisTickLabel" x="106.16666666666666" y="280.5" transform="rotate(0 106.16666666666666 280.5)" text-anchor="middle" fill="black" font-size="10" >1.0</text></g><g ><line class="xAxisTick" x1="162.33333333333331" x2="162.33333333333331" y1="268.75" y2="253.75" stroke="black" stroke-width="1" ></line><text class="xAxisTickLabel" x="162.33333333333331" y="280.5" transform="rotate(0 162.33333333333331 280.5)" text-anchor="middle" fill="black" font-size="10" >2.0</text></g><g ><line class="xAxisTick" x1="218.5" x2="218.5" y1="268.75" y2="253.75" stroke="black" stroke-width="1" ></line><text class="xAxisTickLabel" x="218.5" y="280.5" transform="rotate(0 218.5 280.5)" text-anchor="middle" fill="black" font-size="10" >3.0</text></g><g ><line class="xAxisTick" x1="274.6666666666667" x2="274.6666666666667" y1="268.75" y2="253.75" stroke="black" stroke-width="1" ></line><text class="xAxisTickLabel" x="274.6666666666667" y="280.5" transform="rotate(0 274.6666666666667 280.5)" text-anchor="middle" fill="black" font-size="10" >4.0</text></g><g ><line class="xAxisTick" x1="330.8333333333333" x2="330.8333333333333" y1="268.75" y2="253.75" stroke="black" stroke-width="1" ></line><text class="xAxisTickLabel" x="330.8333333333333" y="280.5" transform="rotate(0 330.8333333333333 280.5)" text-anchor="middle" fill="black" font-size="10" >5.0</text></g><g ><line class="xAxisTick" x1="387" x2="387" y1="268.75" y2="253.75" stroke="black" stroke-width="1" ></line><text class="xAxisTickLabel" x="387" y="280.5" transform="rotate(0 387 280.5)" text-anchor="middle" fill="black" font-size="10" >6.0</text></g><g ><line class="xAxisLine" stroke="black" stroke-width="1" x1="40" x2="397" y1="265" y2="265" ></line></g></g><g ><g ><line class="yAxisTick" x1="36.25" x2="51.25" y1="255" y2="255" stroke="black" stroke-width="1" ></line><text class="yAxisTickLabel" x="32" y="257.5" transform="rotate(0 32 257.5)" text-anchor="end" fill="black" font-size="10" >1.0</text></g><g ><line class="yAxisTick" x1="36.25" x2="51.25" y1="214.66666666666666" y2="214.66666666666666" stroke="black" stroke-width="1" ></line><text class="yAxisTickLabel" x="32" y="217.16666666666666" transform="rotate(0 32 217.16666666666666)" text-anchor="end" fill="black" font-size="10" >1.5</text></g><g ><line class="yAxisTick" x1="36.25" x2="51.25" y1="174.33333333333331" y2="174.33333333333331" stroke="black" stroke-width="1" ></line><text class="yAxisTickLabel" x="32" y="176.83333333333331" transform="rotate(0 32 176.83333333333331)" text-anchor="end" fill="black" font-size="10" >2.0</text></g><g ><line class="yAxisTick" x1="36.25" x2="51.25" y1="134" y2="134" stroke="black" stroke-width="1" ></line><text class="yAxisTickLabel" x="32" y="136.5" transform="rotate(0 32 136.5)" text-anchor="end" fill="black" font-size="10" >2.5</text></g><g ><line class="yAxisTick" x1="36.25" x2="51.25" y1="93.66666666666669" y2="93.66666666666669" stroke="black" stroke-width="1" ></line><text class="yAxisTickLabel" x="32" y="96.16666666666669" transform="rotate(0 32 96.16666666666669)" text-anchor="end" fill="black" font-size="10" >3.0</text></g><g ><line class="yAxisTick" x1="36.25" x2="51.25" y1="53.33333333333334" y2="53.33333333333334" stroke="black" stroke-width="1" ></line><text class="yAxisTickLabel" x="32" y="55.83333333333334" transform="rotate(0 32 55.83333333333334)" text-anchor="end" fill="black" font-size="10" >3.5</text></g><g ><line class="yAxisTick" x1="36.25" x2="51.25" y1="13" y2="13" stroke="black" stroke-width="1" ></line><text class="yAxisTickLabel" x="32" y="15.5" transform="rotate(0 32 15.5)" text-anchor="end" fill="black" font-size="10" >4.0</text></g><g ><line class="yAxisLine" stroke="black" stroke-width="1" x1="40" x2="40" y1="265" y2="3" ></line></g></g></g><g ><g ><g ><path d="M 50,255 L 106.16666666666666,174.33333333333331 L 162.33333333333331,174.33333333333331 L 218.5,93.66666666666669 L 274.6666666666667,134 L 330.8333333333333,13 L 387,255" stroke="blue" stroke-width="1" opacity="1" fill="none" ></path></g><circle cx="50" cy="255" r="3" fill="blue" opacity="1" stroke="blue" stroke-width="0" ></circle><circle cx="106.16666666666666" cy="174.33333333333331" r="3" fill="blue" opacity="1" stroke="blue" stroke-width="0" ></circle><circle cx="162.33333333333331" cy="174.33333333333331" r="3" fill="blue" opacity="1" stroke="blue" stroke-width="0" ></circle><circle cx="218.5" cy="93.66666666666669" r="3" fill="blue" opacity="1" stroke="blue" stroke-width="0" ></circle><circle cx="274.6666666666667" cy="134" r="3" fill="blue" opacity="1" stroke="blue" stroke-width="0" ></circle><circle cx="330.8333333333333" cy="13" r="3" fill="blue" opacity="1" stroke="blue" stroke-width="0" ></circle><circle cx="387" cy="255" r="3" fill="blue" opacity="1" stroke="blue" stroke-width="0" ></circle></g></g></g></svg>