<svg width="550" height="400"  ><g ><g ><g ><g ><line class="xAxisTickGrid" x1="47.308330055178544" x2="47.308330055178544" y1="365" y2="3.000000000000057" stroke="LightGray" stroke-width="0.5" ></line><line class="xAxisTick" x1="47.308330055178544" x2="47.308330055178544" y1="368.75" y2="353.75" stroke="black" stroke-width="1" ></line><text class="xAxisTickLabel" x="82.09976647782615" y="380.5" transform="rotate(0 82.09976647782615 380.5)" text-anchor="middle" fill="black" font-size="10" >2010</text></g><g ><line class="xAxisTickGrid" x1="117.48401116556147" x2="117.48401116556147" y1="365" y2="3.000000000000057" stroke="LightGray" stroke-width="0.5" ></line><line class="xAxisTick" x1="117.48401116556147" x2="117.48401116556147" y1="368.75" y2="353.75" stroke="black" stroke-width="1" ></line><text class="xAxisTickLabel" x="152.2754475882091" y="380.5" transform="rotate(0 152.2754475882091 380.5)" text-anchor="middle" fill="black" font-size="10" >2011</text></g><g ><line class="xAxisTickGrid" x1="187.6596922759444" x2="187.6596922759444" y1="365" y2="3.000000000000057" stroke="LightGray" stroke-width="0.5" ></line><line class="xAxisTick" x1="187.6596922759444" x2="187.6596922759444" y1="368.75" y2="353.75" stroke="black" stroke-width="1" ></line><text class="xAxisTickLabel" x="222.64339083862046" y="380.5" transform="rotate(0 222.64339083862046 380.5)" text-anchor="middle" fill="black" font-size="10" >2012</text></g><g ><line class="xAxisTickGrid" x1="258.02763552635577" x2="258.02763552635577" y1="365" y2="3.000000000000057" stroke="LightGray" stroke-width="0.5" ></line><line class="xAxisTick" x1="258.02763552635577" x2="258.02763552635577" y1="368.75" y2="353.75" stroke="black" stroke-width="1" ></line><text class="xAxisTickLabel" x="292.8190719490034" y="380.5" transform="rotate(0 292.8190719490034 380.5)" text-anchor="middle" fill="black" font-size="10" >2013</text></g><g ><line class="xAxisTickGrid" x1="328.2033166367387" x2="328.2033166367387" y1="365" y2="3.000000000000057" stroke="LightGray" stroke-width="0.5" ></line><line class="xAxisTick" x1="328.2033166367387" x2="328.2033166367387" y1="368.75" y2="353.75" stroke="black" stroke-width="1" ></line><text class="xAxisTickLabel" x="362.9947530593863" y="380.5" transform="rotate(0 362.9947530593863 380.5)" text-anchor="middle" fill="black" font-size="10" >2014</text></g><g ><line class="xAxisTickGrid" x1="398.3789977471216" x2="398.3789977471216" y1="365" y2="3.000000000000057" stroke="LightGray" stroke-width="0.5" ></line><line class="xAxisTick" x1="398.3789977471216" x2="398.3789977471216" y1="368.75" y2="353.75" stroke="black" stroke-width="1" ></line><text class="xAxisTickLabel" x="433.17043416976924" y="380.5" transform="rotate(0 433.17043416976924 380.5)" text-anchor="middle" fill="black" font-size="10" >2015</text></g><g ><line class="xAxisTickGrid" x1="468.55467885750454" x2="468.55467885750454" y1="365" y2="3.000000000000057" stroke="LightGray" stroke-width="0.5" ></line><line class="xAxisTick" x1="468.55467885750454" x2="468.55467885750454" y1="368.75" y2="353.75" stroke="black" stroke-width="1" ></line><text class="xAxisTickLabel" x="503.5383774201806" y="380.5" transform="rotate(0 503.5383774201806 380.5)" text-anchor="middle" fill="black" font-size="10" >2016</text></g><g ><line class="xAxisTickGrid" x1="538.9226221079159" x2="538.9226221079159" y1="365" y2="3.000000000000057" stroke="LightGray" stroke-width="0.5" ></line><line class="xAxisTick" x1="538.9226221079159" x2="538.9226221079159" y1="368.75" y2="353.75" stroke="black" stroke-width="1" ></line></g><g ><line class="xAxisLine" stroke="black" stroke-width="1" x1="40" x2="547" y1="365" y2="365" ></line></g></g><g ><g ><line class="yAxisTick" x1="36.25" x2="51.25" y1="355" y2="355" stroke="black" stroke-width="1" ></line><text class="yAxisTickLabel" x="32" y="357.5" transform="rotate(0 32 357.5)" text-anchor="end" fill="black" font-size="10" >1.0</text></g><g ><line class="yAxisTick" x1="36.25" x2="51.25" y1="298" y2="298" stroke="black" stroke-width="1" ></line><text class="yAxisTickLabel" x="32" y="300.5" transform="rotate(0 32 300.5)" text-anchor="end" fill="black" font-size="10" >1.5</text></g><g ><line class="yAxisTick" x1="36.25" x2="51.25" y1="241" y2="241" stroke="black" stroke-width="1" ></line><text class="yAxisTickLabel" x="32" y="243.5" transform="rotate(0 32 243.5)" text-anchor="end" fill="black" font-size="10" >2.0</text></g><g ><line class="yAxisTick" x1="36.25" x2="51.25" y1="184" y2="184" stroke="black" stroke-width="1" ></line><text class="yAxisTickLabel" x="32" y="186.5" transform="rotate(0 32 186.5)" text-anchor="end" fill="black" font-size="10" >2.5</text></g><g ><line class="yAxisTick" x1="36.25" x2="51.25" y1="127.00000000000003" y2="127.00000000000003" stroke="black" stroke-width="1" ></line><text class="yAxisTickLabel" x="32" y="129.50000000000003" transform="rotate(0 32 129.50000000000003)" text-anchor="end" fill="black" font-size="10" >3.0</text></g><g ><line class="yAxisTick" x1="36.25" x2="51.25" y1="70" y2="70" stroke="black" stroke-width="1" ></line><text class="yAxisTickLabel" x="32" y="72.5" transform="rotate(0 32 72.5)" text-anchor="end" fill="black" font-size="10" >3.5</text></g><g ><line class="yAxisTick" x1="36.25" x2="51.25" y1="13" y2="13" stroke="black" stroke-width="1" ></line><text class="yAxisTickLabel" x="32" y="15.5" transform="rotate(0 32 15.5)" text-anchor="end" fill="black" font-size="10" >4.0</text></g><g ><line class="yAxisLine" stroke="black" stroke-width="1" x1="40" x2="40" y1="365" y2="3" ></line></g></g></g><g ><g ><g ><path d="M 50.000000015576795,355 L 186.12159515571682,241 L 214.56838095742572,241 L 271.10146104829016,127.00000000000003 L 328.2033166367387,184 L 445.66747327161823,13 L 537.0000007076314,355" stroke="blue" stroke-width="1" opacity="1" fill="none" ></path></g><circle cx="50.000000015576795" cy="355" r="3" fill="blue" opacity="1" stroke="blue" stroke-width="0" ></circle><circle cx="186.12159515571682" cy="241" r="3" fill="blue" opacity="1" stroke="blue" stroke-width="0" ></circle><circle cx="214.56838095742572" cy="241" r="3" fill="blue" opacity="1" stroke="blue" stroke-width="0" ></circle><circle cx="271.10146104829016" cy="127.00000000000003" r="3" fill="blue" opacity="1" stroke="blue" stroke-width="0" ></circle><circle cx="328.2033166367387" cy="184" r="3" fill="blue" opacity="1" stroke="blue" stroke-width="0" ></circle><circle cx="445.66747327161823" cy="13" r="3" fill="blue" opacity="1" stroke="blue" stroke-width="0" ></circle><circle cx="537.0000007076314" cy="355" r="3" fill="blue" opacity="1" stroke="blue" stroke-width="0" ></circle></g></g></g></svg>