<svg width="550" height="400"  ><g ><g ><g ><g ><line class="xAxisTickGrid" x1="10.308330055178544" x2="10.308330055178544" y1="35.00000000000006" y2="397" stroke="LightGray" stroke-width="0.5" ></line><line class="xAxisTick" x1="10.308330055178544" x2="10.308330055178544" y1="31.250000000000057" y2="46.25000000000006" stroke="black" stroke-width="1" ></line><text class="xAxisTickLabel" x="45.09976647782615" y="24.500000000000057" transform="rotate(0 45.09976647782615 24.500000000000057)" text-anchor="middle" fill="black" font-size="10" >2010</text></g><g ><line class="xAxisTickGrid" x1="80.48401116556147" x2="80.48401116556147" y1="35.00000000000006" y2="397" stroke="LightGray" stroke-width="0.5" ></line><line class="xAxisTick" x1="80.48401116556147" x2="80.48401116556147" y1="31.250000000000057" y2="46.25000000000006" stroke="black" stroke-width="1" ></line><text class="xAxisTickLabel" x="115.27544758820908" y="24.500000000000057" transform="rotate(0 115.27544758820908 24.500000000000057)" text-anchor="middle" fill="black" font-size="10" >2011</text></g><g ><line class="xAxisTickGrid" x1="150.6596922759444" x2="150.6596922759444" y1="35.00000000000006" y2="397" stroke="LightGray" stroke-width="0.5" ></line><line class="xAxisTick" x1="150.6596922759444" x2="150.6596922759444" y1="31.250000000000057" y2="46.25000000000006" stroke="black" stroke-width="1" ></line><text class="xAxisTickLabel" x="185.64339083862046" y="24.500000000000057" transform="rotate(0 185.64339083862046 24.500000000000057)" text-anchor="middle" fill="black" font-size="10" >2012</text></g><g ><line class="xAxisTickGrid" x1="221.02763552635577" x2="221.02763552635577" y1="35.00000000000006" y2="397" stroke="LightGray" stroke-width="0.5" ></line><line class="xAxisTick" x1="221.02763552635577" x2="221.02763552635577" y1="31.250000000000057" y2="46.25000000000006" stroke="black" stroke-width="1" ></line><text class="xAxisTickLabel" x="255.8190719490034" y="24.500000000000057" transform="rotate(0 255.8190719490034 24.500000000000057)" text-anchor="middle" fill="black" font-size="10" >2013</text></g><g ><line class="xAxisTickGrid" x1="291.2033166367387" x2="291.2033166367387" y1="35.00000000000006" y2="397" stroke="LightGray" stroke-width="0.5" ></line><line class="xAxisTick" x1="291.2033166367387" x2="291.2033166367387" y1="31.250000000000057" y2="46.25000000000006" stroke="black" stroke-width="1" ></line><text class="xAxisTickLabel" x="325.9947530593863" y="24.500000000000057" transform="rotate(0 325.9947530593863 24.500000000000057)" text-anchor="middle" fill="black" font-size="10" >2014</text></g><g ><line class="xAxisTickGrid" x1="361.3789977471216" x2="361.3789977471216" y1="35.00000000000006" y2="397" stroke="LightGray" stroke-width="0.5" ></line><line class="xAxisTick" x1="361.3789977471216" x2="361.3789977471216" y1="31.250000000000057" y2="46.25000000000006" stroke="black" stroke-width="1" ></line><text class="xAxisTickLabel" x="396.17043416976924" y="24.500000000000057" transform="rotate(0 396.17043416976924 24.500000000000057)" text-anchor="middle" fill="black" font-size="10" >2015</text></g><g ><line class="xAxisTickGrid" x1="431.55467885750454" x2="431.55467885750454" y1="35.00000000000006" y2="397" stroke="LightGray" stroke-width="0.5" ></line><line class="xAxisTick" x1="431.55467885750454" x2="431.55467885750454" y1="31.250000000000057" y2="46.25000000000006" stroke="black" stroke-width="1" ></line><text class="xAxisTickLabel" x="466.5383774201806" y="24.500000000000057" transform="rotate(0 466.5383774201806 24.500000000000057)" text-anchor="middle" fill="black" font-size="10" >2016</text></g><g ><line class="xAxisTickGrid" x1="501.9226221079159" x2="501.9226221079159" y1="35.00000000000006" y2="397" stroke="LightGray" stroke-width="0.5" ></line><line class="xAxisTick" x1="501.9226221079159" x2="501.9226221079159" y1="31.250000000000057" y2="46.25000000000006" stroke="black" stroke-width="1" ></line></g><g ><line class="xAxisLine" stroke="black" stroke-width="1" x1="3" x2="510" y1="35" y2="35" ></line></g></g><g ><g ><line class="yAxisTick" x1="513.750000720983" x2="498.75000072098305" y1="387" y2="387" stroke="black" stroke-width="1" ></line><text class="yAxisTickLabel" x="518.000000720983" y="389.5" transform="rotate(0 518.000000720983 389.5)" text-anchor="start" fill="black" font-size="10" >1.0</text></g><g ><line class="yAxisTick" x1="513.750000720983" x2="498.75000072098305" y1="330" y2="330" stroke="black" stroke-width="1" ></line><text class="yAxisTickLabel" x="518.000000720983" y="332.5" transform="rotate(0 518.000000720983 332.5)" text-anchor="start" fill="black" font-size="10" >1.5</text></g><g ><line class="yAxisTick" x1="513.750000720983" x2="498.75000072098305" y1="273" y2="273" stroke="black" stroke-width="1" ></line><text class="yAxisTickLabel" x="518.000000720983" y="275.5" transform="rotate(0 518.000000720983 275.5)" text-anchor="start" fill="black" font-size="10" >2.0</text></g><g ><line class="yAxisTick" x1="513.750000720983" x2="498.75000072098305" y1="216" y2="216" stroke="black" stroke-width="1" ></line><text class="yAxisTickLabel" x="518.000000720983" y="218.5" transform="rotate(0 518.000000720983 218.5)" text-anchor="start" fill="black" font-size="10" >2.5</text></g><g ><line class="yAxisTick" x1="513.750000720983" x2="498.75000072098305" y1="159.00000000000003" y2="159.00000000000003" stroke="black" stroke-width="1" ></line><text class="yAxisTickLabel" x="518.000000720983" y="161.50000000000003" transform="rotate(0 518.000000720983 161.50000000000003)" text-anchor="start" fill="black" font-size="10" >3.0</text></g><g ><line class="yAxisTick" x1="513.750000720983" x2="498.75000072098305" y1="102" y2="102" stroke="black" stroke-width="1" ></line><text class="yAxisTickLabel" x="518.000000720983" y="104.5" transform="rotate(0 518.000000720983 104.5)" text-anchor="start" fill="black" font-size="10" >3.5</text></g><g ><line class="yAxisTick" x1="513.750000720983" x2="498.75000072098305" y1="45" y2="45" stroke="black" stroke-width="1" ></line><text class="yAxisTickLabel" x="518.000000720983" y="47.5" transform="rotate(0 518.000000720983 47.5)" text-anchor="start" fill="black" font-size="10" >4.0</text></g><g ><line class="yAxisLine" stroke="black" stroke-width="1" x1="510" x2="510" y1="397" y2="35" ></line></g></g></g><g ><g ><g ><path d="M 13.000000015576793,387 L 149.12159515571682,273 L 177.56838095742572,273 L 234.10146104829013,159.00000000000003 L 291.2033166367387,216 L 408.66747327161823,45 L 500.00000070763144,387" stroke="blue" stroke-width="1" opacity="1" fill="none" ></path></g><circle cx="13.000000015576793" cy="387" r="3" fill="blue" opacity="1" stroke="blue" stroke-width="0" ></circle><circle cx="149.12159515571682" cy="273" r="3" fill="blue" opacity="1" stroke="blue" stroke-width="0" ></circle><circle cx="177.56838095742572" cy="273" r="3" fill="blue" opacity="1" stroke="blue" stroke-width="0" ></circle><circle cx="234.10146104829013" cy="159.00000000000003" r="3" fill="blue" opacity="1" stroke="blue" stroke-width="0" ></circle><circle cx="291.2033166367387" cy="216" r="3" fill="blue" opacity="1" stroke="blue" stroke-width="0" ></circle><circle cx="408.66747327161823" cy="45" r="3" fill="blue" opacity="1" stroke="blue" stroke-width="0" ></circle><circle cx="500.00000070763144" cy="387" r="3" fill="blue" opacity="1" stroke="blue" stroke-width="0" ></circle></g></g></g></svg>