<svg width="400" height="300"  ><g ><g ><g ><g ><line class="xAxisTickGrid" x1="11.134355065316074" x2="11.134355065316074" y1="35" y2="297" stroke="LightGray" stroke-width="0.5" ></line><line class="xAxisTick" x1="11.134355065316074" x2="11.134355065316074" y1="31.25" y2="46.25" stroke="black" stroke-width="1" ></line><text class="xAxisTickLabel" x="35.200774429877356" y="24.5" transform="rotate(0 35.200774429877356 24.5)" text-anchor="middle" fill="black" font-size="10" >2010</text></g><g ><line class="xAxisTickGrid" x1="59.677259424873256" x2="59.677259424873256" y1="35" y2="297" stroke="LightGray" stroke-width="0.5" ></line><line class="xAxisTick" x1="59.677259424873256" x2="59.677259424873256" y1="31.25" y2="46.25" stroke="black" stroke-width="1" ></line><text class="xAxisTickLabel" x="83.74367878943454" y="24.5" transform="rotate(0 83.74367878943454 24.5)" text-anchor="middle" fill="black" font-size="10" >2011</text></g><g ><line class="xAxisTickGrid" x1="108.22016378443044" x2="108.22016378443044" y1="35" y2="297" stroke="LightGray" stroke-width="0.5" ></line><line class="xAxisTick" x1="108.22016378443044" x2="108.22016378443044" y1="31.25" y2="46.25" stroke="black" stroke-width="1" ></line><text class="xAxisTickLabel" x="132.41957740751104" y="24.5" transform="rotate(0 132.41957740751104 24.5)" text-anchor="middle" fill="black" font-size="10" >2012</text></g><g ><line class="xAxisTickGrid" x1="156.89606240250694" x2="156.89606240250694" y1="35" y2="297" stroke="LightGray" stroke-width="0.5" ></line><line class="xAxisTick" x1="156.89606240250694" x2="156.89606240250694" y1="31.25" y2="46.25" stroke="black" stroke-width="1" ></line><text class="xAxisTickLabel" x="180.96248176706823" y="24.5" transform="rotate(0 180.96248176706823 24.5)" text-anchor="middle" fill="black" font-size="10" >2013</text></g><g ><line class="xAxisTickGrid" x1="205.43896676206413" x2="205.43896676206413" y1="35" y2="297" stroke="LightGray" stroke-width="0.5" ></line><line class="xAxisTick" x1="205.43896676206413" x2="205.43896676206413" y1="31.25" y2="46.25" stroke="black" stroke-width="1" ></line><text class="xAxisTickLabel" x="229.5053861266254" y="24.5" transform="rotate(0 229.5053861266254 24.5)" text-anchor="middle" fill="black" font-size="10" >2014</text></g><g ><line class="xAxisTickGrid" x1="253.9818711216213" x2="253.9818711216213" y1="35" y2="297" stroke="LightGray" stroke-width="0.5" ></line><line class="xAxisTick" x1="253.9818711216213" x2="253.9818711216213" y1="31.25" y2="46.25" stroke="black" stroke-width="1" ></line><text class="xAxisTickLabel" x="278.04829048618257" y="24.5" transform="rotate(0 278.04829048618257 24.5)" text-anchor="middle" fill="black" font-size="10" >2015</text></g><g ><line class="xAxisTickGrid" x1="302.5247754811785" x2="302.5247754811785" y1="35" y2="297" stroke="LightGray" stroke-width="0.5" ></line><line class="xAxisTick" x1="302.5247754811785" x2="302.5247754811785" y1="31.25" y2="46.25" stroke="black" stroke-width="1" ></line><text class="xAxisTickLabel" x="326.7241891042591" y="24.5" transform="rotate(0 326.7241891042591 24.5)" text-anchor="middle" fill="black" font-size="10" >2016</text></g><g ><line class="xAxisTickGrid" x1="351.200674099255" x2="351.200674099255" y1="35" y2="297" stroke="LightGray" stroke-width="0.5" ></line><line class="xAxisTick" x1="351.200674099255" x2="351.200674099255" y1="31.25" y2="46.25" stroke="black" stroke-width="1" ></line></g><g ><line class="xAxisLine" stroke="black" stroke-width="1" x1="3" x2="360" y1="35" y2="35" ></line></g></g><g ><g ><line class="yAxisTick" x1="363.7500004556285" x2="348.7500004556285" y1="287" y2="287" stroke="black" stroke-width="1" ></line><text class="yAxisTickLabel" x="368.0000004556285" y="289.5" transform="rotate(0 368.0000004556285 289.5)" text-anchor="start" fill="black" font-size="10" >1.0</text></g><g ><line class="yAxisTick" x1="363.7500004556285" x2="348.7500004556285" y1="246.66666666666666" y2="246.66666666666666" stroke="black" stroke-width="1" ></line><text class="yAxisTickLabel" x="368.0000004556285" y="249.16666666666666" transform="rotate(0 368.0000004556285 249.16666666666666)" text-anchor="start" fill="black" font-size="10" >1.5</text></g><g ><line class="yAxisTick" x1="363.7500004556285" x2="348.7500004556285" y1="206.33333333333331" y2="206.33333333333331" stroke="black" stroke-width="1" ></line><text class="yAxisTickLabel" x="368.0000004556285" y="208.83333333333331" transform="rotate(0 368.0000004556285 208.83333333333331)" text-anchor="start" fill="black" font-size="10" >2.0</text></g><g ><line class="yAxisTick" x1="363.7500004556285" x2="348.7500004556285" y1="166" y2="166" stroke="black" stroke-width="1" ></line><text class="yAxisTickLabel" x="368.0000004556285" y="168.5" transform="rotate(0 368.0000004556285 168.5)" text-anchor="start" fill="black" font-size="10" >2.5</text></g><g ><line class="yAxisTick" x1="363.7500004556285" x2="348.7500004556285" y1="125.66666666666669" y2="125.66666666666669" stroke="black" stroke-width="1" ></line><text class="yAxisTickLabel" x="368.0000004556285" y="128.16666666666669" transform="rotate(0 368.0000004556285 128.16666666666669)" text-anchor="start" fill="black" font-size="10" >3.0</text></g><g ><line class="yAxisTick" x1="363.7500004556285" x2="348.7500004556285" y1="85.33333333333334" y2="85.33333333333334" stroke="black" stroke-width="1" ></line><text class="yAxisTickLabel" x="368.0000004556285" y="87.83333333333334" transform="rotate(0 368.0000004556285 87.83333333333334)" text-anchor="start" fill="black" font-size="10" >3.5</text></g><g ><line class="yAxisTick" x1="363.7500004556285" x2="348.7500004556285" y1="45" y2="45" stroke="black" stroke-width="1" ></line><text class="yAxisTickLabel" x="368.0000004556285" y="47.5" transform="rotate(0 368.0000004556285 47.5)" text-anchor="start" fill="black" font-size="10" >4.0</text></g><g ><line class="yAxisLine" stroke="black" stroke-width="1" x1="360" x2="360" y1="297" y2="35" ></line></g></g></g><g ><g ><g ><path d="M 12.99627468458676,287 L 107.15620971627575,206.33333333333331 L 126.83381854969899,206.33333333333331 L 165.9396719818217,125.66666666666669 L 205.43896676206413,166 L 286.6929172899394,45 L 349.8707315140617,287" stroke="blue" stroke-width="1" opacity="1" fill="none" ></path></g><circle cx="12.99627468458676" cy="287" r="3" fill="blue" opacity="1" stroke="blue" stroke-width="0" ></circle><circle cx="107.15620971627575" cy="206.33333333333331" r="3" fill="blue" opacity="1" stroke="blue" stroke-width="0" ></circle><circle cx="126.83381854969899" cy="206.33333333333331" r="3" fill="blue" opacity="1" stroke="blue" stroke-width="0" ></circle><circle cx="165.9396719818217" cy="125.66666666666669" r="3" fill="blue" opacity="1" stroke="blue" stroke-width="0" ></circle><circle cx="205.43896676206413" cy="166" r="3" fill="blue" opacity="1" stroke="blue" stroke-width="0" ></circle><circle cx="286.6929172899394" cy="45" r="3" fill="blue" opacity="1" stroke="blue" stroke-width="0" ></circle><circle cx="349.8707315140617" cy="287" r="3" fill="blue" opacity="1" stroke="blue" stroke-width="0" ></circle></g></g></g></svg>