<svg width="400" height="300"  ><g ><g ><g ><g ><line class="xAxisTick" x1="50" x2="50" y1="268.75" y2="253.75" stroke="red" stroke-width="1" ></line><text class="xAxisTickLabel" x="50" y="280.5" transform="rotate(0 50 280.5)" text-anchor="middle" fill="red" font-size="10" >0.0</text></g><g ><line class="xAxisTick" x1="100" x2="100" y1="268.75" y2="253.75" stroke="red" stroke-width="1" ></line><text class="xAxisTickLabel" x="100" y="280.5" transform="rotate(0 100 280.5)" text-anchor="middle" fill="red" font-size="10" >1.0</text></g><g ><line class="xAxisTick" x1="150" x2="150" y1="268.75" y2="253.75" stroke="red" stroke-width="1" ></line><text class="xAxisTickLabel" x="150" y="280.5" transform="rotate(0 150 280.5)" text-anchor="middle" fill="red" font-size="10" >2.0</text></g><g ><line class="xAxisTick" x1="200" x2="200" y1="268.75" y2="253.75" stroke="red" stroke-width="1" ></line><text class="xAxisTickLabel" x="200" y="280.5" transform="rotate(0 200 280.5)" text-anchor="middle" fill="red" font-size="10" >3.0</text></g><g ><line class="xAxisTick" x1="250" x2="250" y1="268.75" y2="253.75" stroke="red" stroke-width="1" ></line><text class="xAxisTickLabel" x="250" y="280.5" transform="rotate(0 250 280.5)" text-anchor="middle" fill="red" font-size="10" >4.0</text></g><g ><line class="xAxisTick" x1="300" x2="300" y1="268.75" y2="253.75" stroke="red" stroke-width="1" ></line><text class="xAxisTickLabel" x="300" y="280.5" transform="rotate(0 300 280.5)" text-anchor="middle" fill="red" font-size="10" >5.0</text></g><g ><line class="xAxisTick" x1="350" x2="350" y1="268.75" y2="253.75" stroke="red" stroke-width="1" ></line><text class="xAxisTickLabel" x="350" y="280.5" transform="rotate(0 350 280.5)" text-anchor="middle" fill="red" font-size="10" >6.0</text></g><g ><line class="xAxisLine" stroke="red" stroke-width="1" x1="40" x2="360" y1="265" y2="265" ></line></g></g><g ><g ><line class="xAxisTickGrid" x1="48.34360519070508" x2="48.34360519070508" y1="34.99999999999997" y2="265" stroke="LightGray" stroke-width="0.5" ></line><line class="xAxisTick" x1="48.34360519070508" x2="48.34360519070508" y1="31.24999999999997" y2="46.24999999999997" stroke="blue" stroke-width="1" ></line><text class="xAxisTickLabel" x="69.76744186046511" y="24.49999999999997" transform="rotate(0 69.76744186046511 24.49999999999997)" text-anchor="middle" fill="blue" font-size="10" >2010</text></g><g ><line class="xAxisTickGrid" x1="91.55631742351602" x2="91.55631742351602" y1="34.99999999999997" y2="265" stroke="LightGray" stroke-width="0.5" ></line><line class="xAxisTick" x1="91.55631742351602" x2="91.55631742351602" y1="31.24999999999997" y2="46.24999999999997" stroke="blue" stroke-width="1" ></line><text class="xAxisTickLabel" x="112.98015409327607" y="24.49999999999997" transform="rotate(0 112.98015409327607 24.49999999999997)" text-anchor="middle" fill="blue" font-size="10" >2011</text></g><g ><line class="xAxisTickGrid" x1="134.76902965632698" x2="134.76902965632698" y1="34.99999999999997" y2="265" stroke="LightGray" stroke-width="0.5" ></line><line class="xAxisTick" x1="134.76902965632698" x2="134.76902965632698" y1="31.24999999999997" y2="46.24999999999997" stroke="blue" stroke-width="1" ></line><text class="xAxisTickLabel" x="156.31125731850568" y="24.49999999999997" transform="rotate(0 156.31125731850568 24.49999999999997)" text-anchor="middle" fill="blue" font-size="10" >2012</text></g><g ><line class="xAxisTickGrid" x1="178.1001328815566" x2="178.1001328815566" y1="34.99999999999997" y2="265" stroke="LightGray" stroke-width="0.5" ></line><line class="xAxisTick" x1="178.1001328815566" x2="178.1001328815566" y1="31.24999999999997" y2="46.24999999999997" stroke="blue" stroke-width="1" ></line><text class="xAxisTickLabel" x="199.52396955131664" y="24.49999999999997" transform="rotate(0 199.52396955131664 24.49999999999997)" text-anchor="middle" fill="blue" font-size="10" >2013</text></g><g ><line class="xAxisTickGrid" x1="221.31284511436755" x2="221.31284511436755" y1="34.99999999999997" y2="265" stroke="LightGray" stroke-width="0.5" ></line><line class="xAxisTick" x1="221.31284511436755" x2="221.31284511436755" y1="31.24999999999997" y2="46.24999999999997" stroke="blue" stroke-width="1" ></line><text class="xAxisTickLabel" x="242.7366817841276" y="24.49999999999997" transform="rotate(0 242.7366817841276 24.49999999999997)" text-anchor="middle" fill="blue" font-size="10" >2014</text></g><g ><line class="xAxisTickGrid" x1="264.5255573471785" x2="264.5255573471785" y1="34.99999999999997" y2="265" stroke="LightGray" stroke-width="0.5" ></line><line class="xAxisTick" x1="264.5255573471785" x2="264.5255573471785" y1="31.24999999999997" y2="46.24999999999997" stroke="blue" stroke-width="1" ></line><text class="xAxisTickLabel" x="285.9493940169385" y="24.49999999999997" transform="rotate(0 285.9493940169385 24.49999999999997)" text-anchor="middle" fill="blue" font-size="10" >2015</text></g><g ><line class="xAxisTickGrid" x1="307.73826957998943" x2="307.73826957998943" y1="34.99999999999997" y2="265" stroke="LightGray" stroke-width="0.5" ></line><line class="xAxisTick" x1="307.73826957998943" x2="307.73826957998943" y1="31.24999999999997" y2="46.24999999999997" stroke="blue" stroke-width="1" ></line><text class="xAxisTickLabel" x="329.28049724216817" y="24.49999999999997" transform="rotate(0 329.28049724216817 24.49999999999997)" text-anchor="middle" fill="blue" font-size="10" >2016</text></g><g ><line class="xAxisTickGrid" x1="351.0693728052191" x2="351.0693728052191" y1="34.99999999999997" y2="265" stroke="LightGray" stroke-width="0.5" ></line><line class="xAxisTick" x1="351.0693728052191" x2="351.0693728052191" y1="31.24999999999997" y2="46.24999999999997" stroke="blue" stroke-width="1" ></line></g><g ><line class="xAxisLine" stroke="blue" stroke-width="1" x1="40" x2="360" y1="35" y2="35" ></line></g></g><g ><g ><line class="yAxisTick" x1="36.25" x2="51.25" y1="255" y2="255" stroke="blue" stroke-width="1" ></line><text class="yAxisTickLabel" x="32" y="257.5" transform="rotate(0 32 257.5)" text-anchor="end" fill="blue" font-size="10" >1.0</text></g><g ><line class="yAxisTick" x1="36.25" x2="51.25" y1="220" y2="220" stroke="blue" stroke-width="1" ></line><text class="yAxisTickLabel" x="32" y="222.5" transform="rotate(0 32 222.5)" text-anchor="end" fill="blue" font-size="10" >1.5</text></g><g ><line class="yAxisTick" x1="36.25" x2="51.25" y1="185" y2="185" stroke="blue" stroke-width="1" ></line><text class="yAxisTickLabel" x="32" y="187.5" transform="rotate(0 32 187.5)" text-anchor="end" fill="blue" font-size="10" >2.0</text></g><g ><line class="yAxisTick" x1="36.25" x2="51.25" y1="150" y2="150" stroke="blue" stroke-width="1" ></line><text class="yAxisTickLabel" x="32" y="152.5" transform="rotate(0 32 152.5)" text-anchor="end" fill="blue" font-size="10" >2.5</text></g><g ><line class="yAxisTick" x1="36.25" x2="51.25" y1="115" y2="115" stroke="blue" stroke-width="1" ></line><text class="yAxisTickLabel" x="32" y="117.5" transform="rotate(0 32 117.5)" text-anchor="end" fill="blue" font-size="10" >3.0</text></g><g ><line class="yAxisTick" x1="36.25" x2="51.25" y1="80" y2="80" stroke="blue" stroke-width="1" ></line><text class="yAxisTickLabel" x="32" y="82.5" transform="rotate(0 32 82.5)" text-anchor="end" fill="blue" font-size="10" >3.5</text></g><g ><line class="yAxisTick" x1="36.25" x2="51.25" y1="45" y2="45" stroke="blue" stroke-width="1" ></line><text class="yAxisTickLabel" x="32" y="47.5" transform="rotate(0 32 47.5)" text-anchor="end" fill="blue" font-size="10" >4.0</text></g><g ><line class="yAxisLine" stroke="blue" stroke-width="1" x1="40" x2="40" y1="265" y2="35" ></line></g></g><g ><g ><line class="yAxisTick" x1="363.75" x2="348.75" y1="255" y2="255" stroke="red" stroke-width="1" ></line><text class="yAxisTickLabel" x="368" y="257.5" transform="rotate(0 368 257.5)" text-anchor="start" fill="red" font-size="10" >1.0</text></g><g ><line class="yAxisTick" x1="363.75" x2="348.75" y1="220" y2="220" stroke="red" stroke-width="1" ></line><text class="yAxisTickLabel" x="368" y="222.5" transform="rotate(0 368 222.5)" text-anchor="start" fill="red" font-size="10" >1.5</text></g><g ><line class="yAxisTick" x1="363.75" x2="348.75" y1="185" y2="185" stroke="red" stroke-width="1" ></line><text class="yAxisTickLabel" x="368" y="187.5" transform="rotate(0 368 187.5)" text-anchor="start" fill="red" font-size="10" >2.0</text></g><g ><line class="yAxisTick" x1="363.75" x2="348.75" y1="150" y2="150" stroke="red" stroke-width="1" ></line><text class="yAxisTickLabel" x="368" y="152.5" transform="rotate(0 368 152.5)" text-anchor="start" fill="red" font-size="10" >2.5</text></g><g ><line class="yAxisTick" x1="363.75" x2="348.75" y1="115" y2="115" stroke="red" stroke-width="1" ></line><text class="yAxisTickLabel" x="368" y="117.5" transform="rotate(0 368 117.5)" text-anchor="start" fill="red" font-size="10" >3.0</text></g><g ><line class="yAxisTick" x1="363.75" x2="348.75" y1="80" y2="80" stroke="red" stroke-width="1" ></line><text class="yAxisTickLabel" x="368" y="82.5" transform="rotate(0 368 82.5)" text-anchor="start" fill="red" font-size="10" >3.5</text></g><g ><line class="yAxisTick" x1="363.75" x2="348.75" y1="45" y2="45" stroke="red" stroke-width="1" ></line><text class="yAxisTickLabel" x="368" y="47.5" transform="rotate(0 368 47.5)" text-anchor="start" fill="red" font-size="10" >4.0</text></g><g ><line class="yAxisLine" stroke="red" stroke-width="1" x1="360" x2="360" y1="265" y2="35" ></line></g></g></g><g ><g ><g ><path d="M 50.001079084566314,255 L 133.8219017169777,185 L 151.33883563692194,185 L 186.1507203660255,115 L 221.31284511436755,150 L 293.6448085241515,45 L 349.8854628810325,255" stroke="blue" stroke-width="1" opacity="1" fill="none" ></path></g><circle cx="50.001079084566314" cy="255" r="3" fill="blue" opacity="1" stroke="blue" stroke-width="0" ></circle><circle cx="133.8219017169777" cy="185" r="3" fill="blue" opacity="1" stroke="blue" stroke-width="0" ></circle><circle cx="151.33883563692194" cy="185" r="3" fill="blue" opacity="1" stroke="blue" stroke-width="0" ></circle><circle cx="186.1507203660255" cy="115" r="3" fill="blue" opacity="1" stroke="blue" stroke-width="0" ></circle><circle cx="221.31284511436755" cy="150" r="3" fill="blue" opacity="1" stroke="blue" stroke-width="0" ></circle><circle cx="293.6448085241515" cy="45" r="3" fill="blue" opacity="1" stroke="blue" stroke-width="0" ></circle><circle cx="349.8854628810325" cy="255" r="3" fill="blue" opacity="1" stroke="blue" stroke-width="0" ></circle></g><g ><g ><path d="M 50,255 L 100,185 L 150,185 L 200,115 L 250,150 L 300,45 L 350,255" stroke="red" stroke-width="1" opacity="1" fill="none" ></path></g><circle cx="50" cy="255" r="3" fill="red" opacity="1" stroke="red" stroke-width="0" ></circle><circle cx="100" cy="185" r="3" fill="red" opacity="1" stroke="red" stroke-width="0" ></circle><circle cx="150" cy="185" r="3" fill="red" opacity="1" stroke="red" stroke-width="0" ></circle><circle cx="200" cy="115" r="3" fill="red" opacity="1" stroke="red" stroke-width="0" ></circle><circle cx="250" cy="150" r="3" fill="red" opacity="1" stroke="red" stroke-width="0" ></circle><circle cx="300" cy="45" r="3" fill="red" opacity="1" stroke="red" stroke-width="0" ></circle><circle cx="350" cy="255" r="3" fill="red" opacity="1" stroke="red" stroke-width="0" ></circle></g></g></g></svg>