<svg width="550" height="400"  ><g ><g ><g ><g ><line class="xAxisTick" x1="50" x2="50" y1="368.75" y2="353.75" stroke="red" stroke-width="1" ></line><text class="xAxisTickLabel" x="50" y="380.5" transform="rotate(0 50 380.5)" text-anchor="middle" fill="red" font-size="10" >0.0</text></g><g ><line class="xAxisTick" x1="124.99999999999999" x2="124.99999999999999" y1="368.75" y2="353.75" stroke="red" stroke-width="1" ></line><text class="xAxisTickLabel" x="124.99999999999999" y="380.5" transform="rotate(0 124.99999999999999 380.5)" text-anchor="middle" fill="red" font-size="10" >1.0</text></g><g ><line class="xAxisTick" x1="199.99999999999997" x2="199.99999999999997" y1="368.75" y2="353.75" stroke="red" stroke-width="1" ></line><text class="xAxisTickLabel" x="199.99999999999997" y="380.5" transform="rotate(0 199.99999999999997 380.5)" text-anchor="middle" fill="red" font-size="10" >2.0</text></g><g ><line class="xAxisTick" x1="274.99999999999994" x2="274.99999999999994" y1="368.75" y2="353.75" stroke="red" stroke-width="1" ></line><text class="xAxisTickLabel" x="274.99999999999994" y="380.5" transform="rotate(0 274.99999999999994 380.5)" text-anchor="middle" fill="red" font-size="10" >3.0</text></g><g ><line class="xAxisTick" x1="350" x2="350" y1="368.75" y2="353.75" stroke="red" stroke-width="1" ></line><text class="xAxisTickLabel" x="350" y="380.5" transform="rotate(0 350 380.5)" text-anchor="middle" fill="red" font-size="10" >4.0</text></g><g ><line class="xAxisTick" x1="424.99999999999994" x2="424.99999999999994" y1="368.75" y2="353.75" stroke="red" stroke-width="1" ></line><text class="xAxisTickLabel" x="424.99999999999994" y="380.5" transform="rotate(0 424.99999999999994 380.5)" text-anchor="middle" fill="red" font-size="10" >5.0</text></g><g ><line class="xAxisTick" x1="499.99999999999994" x2="499.99999999999994" y1="368.75" y2="353.75" stroke="red" stroke-width="1" ></line><text class="xAxisTickLabel" x="499.99999999999994" y="380.5" transform="rotate(0 499.99999999999994 380.5)" text-anchor="middle" fill="red" font-size="10" >6.0</text></g><g ><line class="xAxisLine" stroke="red" stroke-width="1" x1="40" x2="510" y1="365" y2="365" ></line></g></g><g ><g ><line class="xAxisTickGrid" x1="47.51283063560995" x2="47.51283063560995" y1="35" y2="365" stroke="LightGray" stroke-width="0.5" ></line><line class="xAxisTick" x1="47.51283063560995" x2="47.51283063560995" y1="31.25" y2="46.25" stroke="blue" stroke-width="1" ></line><text class="xAxisTickLabel" x="79.66097512830635" y="24.5" transform="rotate(0 79.66097512830635 24.5)" text-anchor="middle" fill="blue" font-size="10" >2010</text></g><g ><line class="xAxisTickGrid" x1="112.35688906435057" x2="112.35688906435057" y1="35" y2="365" stroke="LightGray" stroke-width="0.5" ></line><line class="xAxisTick" x1="112.35688906435057" x2="112.35688906435057" y1="31.25" y2="46.25" stroke="blue" stroke-width="1" ></line><text class="xAxisTickLabel" x="144.505033557047" y="24.5" transform="rotate(0 144.505033557047 24.5)" text-anchor="middle" fill="blue" font-size="10" >2011</text></g><g ><line class="xAxisTickGrid" x1="177.2009474930912" x2="177.2009474930912" y1="35" y2="365" stroke="LightGray" stroke-width="0.5" ></line><line class="xAxisTick" x1="177.2009474930912" x2="177.2009474930912" y1="31.25" y2="46.25" stroke="blue" stroke-width="1" ></line><text class="xAxisTickLabel" x="209.5267469403869" y="24.5" transform="rotate(0 209.5267469403869 24.5)" text-anchor="middle" fill="blue" font-size="10" >2012</text></g><g ><line class="xAxisTickGrid" x1="242.22266087643112" x2="242.22266087643112" y1="35" y2="365" stroke="LightGray" stroke-width="0.5" ></line><line class="xAxisTick" x1="242.22266087643112" x2="242.22266087643112" y1="31.25" y2="46.25" stroke="blue" stroke-width="1" ></line><text class="xAxisTickLabel" x="274.37080536912754" y="24.5" transform="rotate(0 274.37080536912754 24.5)" text-anchor="middle" fill="blue" font-size="10" >2013</text></g><g ><line class="xAxisTickGrid" x1="307.0667193051717" x2="307.0667193051717" y1="35" y2="365" stroke="LightGray" stroke-width="0.5" ></line><line class="xAxisTick" x1="307.0667193051717" x2="307.0667193051717" y1="31.25" y2="46.25" stroke="blue" stroke-width="1" ></line><text class="xAxisTickLabel" x="339.21486379786813" y="24.5" transform="rotate(0 339.21486379786813 24.5)" text-anchor="middle" fill="blue" font-size="10" >2014</text></g><g ><line class="xAxisTickGrid" x1="371.91077773391237" x2="371.91077773391237" y1="35" y2="365" stroke="LightGray" stroke-width="0.5" ></line><line class="xAxisTick" x1="371.91077773391237" x2="371.91077773391237" y1="31.25" y2="46.25" stroke="blue" stroke-width="1" ></line><text class="xAxisTickLabel" x="404.0589222266088" y="24.5" transform="rotate(0 404.0589222266088 24.5)" text-anchor="middle" fill="blue" font-size="10" >2015</text></g><g ><line class="xAxisTickGrid" x1="436.75483616265296" x2="436.75483616265296" y1="35" y2="365" stroke="LightGray" stroke-width="0.5" ></line><line class="xAxisTick" x1="436.75483616265296" x2="436.75483616265296" y1="31.25" y2="46.25" stroke="blue" stroke-width="1" ></line><text class="xAxisTickLabel" x="469.0806356099487" y="24.5" transform="rotate(0 469.0806356099487 24.5)" text-anchor="middle" fill="blue" font-size="10" >2016</text></g><g ><line class="xAxisTickGrid" x1="501.7765495459929" x2="501.7765495459929" y1="35" y2="365" stroke="LightGray" stroke-width="0.5" ></line><line class="xAxisTick" x1="501.7765495459929" x2="501.7765495459929" y1="31.25" y2="46.25" stroke="blue" stroke-width="1" ></line></g><g ><line class="xAxisLine" stroke="blue" stroke-width="1" x1="40" x2="510" y1="35" y2="35" ></line></g></g><g ><g ><line class="yAxisTick" x1="36.25" x2="51.25" y1="355" y2="355" stroke="blue" stroke-width="1" ></line><text class="yAxisTickLabel" x="32" y="357.5" transform="rotate(0 32 357.5)" text-anchor="end" fill="blue" font-size="10" >1.0</text></g><g ><line class="yAxisTick" x1="36.25" x2="51.25" y1="303.3333333333333" y2="303.3333333333333" stroke="blue" stroke-width="1" ></line><text class="yAxisTickLabel" x="32" y="305.8333333333333" transform="rotate(0 32 305.8333333333333)" text-anchor="end" fill="blue" font-size="10" >1.5</text></g><g ><line class="yAxisTick" x1="36.25" x2="51.25" y1="251.66666666666669" y2="251.66666666666669" stroke="blue" stroke-width="1" ></line><text class="yAxisTickLabel" x="32" y="254.16666666666669" transform="rotate(0 32 254.16666666666669)" text-anchor="end" fill="blue" font-size="10" >2.0</text></g><g ><line class="yAxisTick" x1="36.25" x2="51.25" y1="200" y2="200" stroke="blue" stroke-width="1" ></line><text class="yAxisTickLabel" x="32" y="202.5" transform="rotate(0 32 202.5)" text-anchor="end" fill="blue" font-size="10" >2.5</text></g><g ><line class="yAxisTick" x1="36.25" x2="51.25" y1="148.33333333333331" y2="148.33333333333331" stroke="blue" stroke-width="1" ></line><text class="yAxisTickLabel" x="32" y="150.83333333333331" transform="rotate(0 32 150.83333333333331)" text-anchor="end" fill="blue" font-size="10" >3.0</text></g><g ><line class="yAxisTick" x1="36.25" x2="51.25" y1="96.66666666666663" y2="96.66666666666663" stroke="blue" stroke-width="1" ></line><text class="yAxisTickLabel" x="32" y="99.16666666666663" transform="rotate(0 32 99.16666666666663)" text-anchor="end" fill="blue" font-size="10" >3.5</text></g><g ><line class="yAxisTick" x1="36.25" x2="51.25" y1="45" y2="45" stroke="blue" stroke-width="1" ></line><text class="yAxisTickLabel" x="32" y="47.5" transform="rotate(0 32 47.5)" text-anchor="end" fill="blue" font-size="10" >4.0</text></g><g ><line class="yAxisLine" stroke="blue" stroke-width="1" x1="40" x2="40" y1="365" y2="35" ></line></g></g><g ><g ><line class="yAxisTick" x1="513.75" x2="498.75" y1="355" y2="355" stroke="red" stroke-width="1" ></line><text class="yAxisTickLabel" x="518" y="357.5" transform="rotate(0 518 357.5)" text-anchor="start" fill="red" font-size="10" >1.0</text></g><g ><line class="yAxisTick" x1="513.75" x2="498.75" y1="303.3333333333333" y2="303.3333333333333" stroke="red" stroke-width="1" ></line><text class="yAxisTickLabel" x="518" y="305.8333333333333" transform="rotate(0 518 305.8333333333333)" text-anchor="start" fill="red" font-size="10" >1.5</text></g><g ><line class="yAxisTick" x1="513.75" x2="498.75" y1="251.66666666666669" y2="251.66666666666669" stroke="red" stroke-width="1" ></line><text class="yAxisTickLabel" x="518" y="254.16666666666669" transform="rotate(0 518 254.16666666666669)" text-anchor="start" fill="red" font-size="10" >2.0</text></g><g ><line class="yAxisTick" x1="513.75" x2="498.75" y1="200" y2="200" stroke="red" stroke-width="1" ></line><text class="yAxisTickLabel" x="518" y="202.5" transform="rotate(0 518 202.5)" text-anchor="start" fill="red" font-size="10" >2.5</text></g><g ><line class="yAxisTick" x1="513.75" x2="498.75" y1="148.33333333333331" y2="148.33333333333331" stroke="red" stroke-width="1" ></line><text class="yAxisTickLabel" x="518" y="150.83333333333331" transform="rotate(0 518 150.83333333333331)" text-anchor="start" fill="red" font-size="10" >3.0</text></g><g ><line class="yAxisTick" x1="513.75" x2="498.75" y1="96.66666666666663" y2="96.66666666666663" stroke="red" stroke-width="1" ></line><text class="yAxisTickLabel" x="518" y="99.16666666666663" transform="rotate(0 518 99.16666666666663)" text-anchor="start" fill="red" font-size="10" >3.5</text></g><g ><line class="yAxisTick" x1="513.75" x2="498.75" y1="45" y2="45" stroke="red" stroke-width="1" ></line><text class="yAxisTickLabel" x="518" y="47.5" transform="rotate(0 518 47.5)" text-anchor="start" fill="red" font-size="10" >4.0</text></g><g ><line class="yAxisLine" stroke="red" stroke-width="1" x1="510" x2="510" y1="365" y2="35" ></line></g></g></g><g ><g ><g ><path d="M 50,355 L 175.77970785629688,251.66666666666669 L 202.06523884721673,251.66666666666669 L 254.30319778918278,148.33333333333331 L 307.0667193051717,200 L 415.60649427556257,45 L 500,355" stroke="blue" stroke-width="1" opacity="1" fill="none" ></path></g><circle cx="50" cy="355" r="3" fill="blue" opacity="1" stroke="blue" stroke-width="0" ></circle><circle cx="175.77970785629688" cy="251.66666666666669" r="3" fill="blue" opacity="1" stroke="blue" stroke-width="0" ></circle><circle cx="202.06523884721673" cy="251.66666666666669" r="3" fill="blue" opacity="1" stroke="blue" stroke-width="0" ></circle><circle cx="254.30319778918278" cy="148.33333333333331" r="3" fill="blue" opacity="1" stroke="blue" stroke-width="0" ></circle><circle cx="307.0667193051717" cy="200" r="3" fill="blue" opacity="1" stroke="blue" stroke-width="0" ></circle><circle cx="415.60649427556257" cy="45" r="3" fill="blue" opacity="1" stroke="blue" stroke-width="0" ></circle><circle cx="500" cy="355" r="3" fill="blue" opacity="1" stroke="blue" stroke-width="0" ></circle></g><g ><g ><path d="M 50,355 L 124.99999999999999,251.66666666666669 L 199.99999999999997,251.66666666666669 L 274.99999999999994,148.33333333333331 L 350,200 L 424.99999999999994,45 L 499.99999999999994,355" stroke="red" stroke-width="1" opacity="1" fill="none" ></path></g><circle cx="50" cy="355" r="3" fill="red" opacity="1" stroke="red" stroke-width="0" ></circle><circle cx="124.99999999999999" cy="251.66666666666669" r="3" fill="red" opacity="1" stroke="red" stroke-width="0" ></circle><circle cx="199.99999999999997" cy="251.66666666666669" r="3" fill="red" opacity="1" stroke="red" stroke-width="0" ></circle><circle cx="274.99999999999994" cy="148.33333333333331" r="3" fill="red" opacity="1" stroke="red" stroke-width="0" ></circle><circle cx="350" cy="200" r="3" fill="red" opacity="1" stroke="red" stroke-width="0" ></circle><circle cx="424.99999999999994" cy="45" r="3" fill="red" opacity="1" stroke="red" stroke-width="0" ></circle><circle cx="499.99999999999994" cy="355" r="3" fill="red" opacity="1" stroke="red" stroke-width="0" ></circle></g></g></g></svg>