<svg width="550" height="400"  ><g ><g ><g ><g ><line class="xAxisTick" x1="50" x2="50" y1="368.75" y2="353.75" stroke="black" stroke-width="1" ></line><text class="xAxisTickLabel" x="50" y="380.5" transform="rotate(0 50 380.5)" text-anchor="middle" fill="black" font-size="10" >-1.0</text></g><g ><line class="xAxisTick" x1="110.875" x2="110.875" y1="368.75" y2="353.75" stroke="black" stroke-width="1" ></line><text class="xAxisTickLabel" x="110.875" y="380.5" transform="rotate(0 110.875 380.5)" text-anchor="middle" fill="black" font-size="10" >0.0</text></g><g ><line class="xAxisTick" x1="171.75" x2="171.75" y1="368.75" y2="353.75" stroke="black" stroke-width="1" ></line><text class="xAxisTickLabel" x="171.75" y="380.5" transform="rotate(0 171.75 380.5)" text-anchor="middle" fill="black" font-size="10" >1.0</text></g><g ><line class="xAxisTick" x1="232.625" x2="232.625" y1="368.75" y2="353.75" stroke="black" stroke-width="1" ></line><text class="xAxisTickLabel" x="232.625" y="380.5" transform="rotate(0 232.625 380.5)" text-anchor="middle" fill="black" font-size="10" >2.0</text></g><g ><line class="xAxisTick" x1="293.5" x2="293.5" y1="368.75" y2="353.75" stroke="black" stroke-width="1" ></line><text class="xAxisTickLabel" x="293.5" y="380.5" transform="rotate(0 293.5 380.5)" text-anchor="middle" fill="black" font-size="10" >3.0</text></g><g ><line class="xAxisTick" x1="354.375" x2="354.375" y1="368.75" y2="353.75" stroke="black" stroke-width="1" ></line><text class="xAxisTickLabel" x="354.375" y="380.5" transform="rotate(0 354.375 380.5)" text-anchor="middle" fill="black" font-size="10" >4.0</text></g><g ><line class="xAxisTick" x1="415.25" x2="415.25" y1="368.75" y2="353.75" stroke="black" stroke-width="1" ></line><text class="xAxisTickLabel" x="415.25" y="380.5" transform="rotate(0 415.25 380.5)" text-anchor="middle" fill="black" font-size="10" >5.0</text></g><g ><line class="xAxisTick" x1="476.125" x2="476.125" y1="368.75" y2="353.75" stroke="black" stroke-width="1" ></line><text class="xAxisTickLabel" x="476.125" y="380.5" transform="rotate(0 476.125 380.5)" text-anchor="middle" fill="black" font-size="10" >6.0</text></g><g ><line class="xAxisTick" x1="537" x2="537" y1="368.75" y2="353.75" stroke="black" stroke-width="1" ></line><text class="xAxisTickLabel" x="537" y="380.5" transform="rotate(0 537 380.5)" text-anchor="middle" fill="black" font-size="10" >7.0</text></g><g ><line class="xAxisLine" stroke="black" stroke-width="1" x1="40" x2="547" y1="365" y2="365" ></line></g></g><g ><g ><line class="yAxisTick" x1="36.25" x2="51.25" y1="355" y2="355" stroke="black" stroke-width="1" ></line><text class="yAxisTickLabel" x="32" y="357.5" transform="rotate(0 32 357.5)" text-anchor="end" fill="black" font-size="10" >1.0</text></g><g ><line class="yAxisTick" x1="36.25" x2="51.25" y1="298" y2="298" stroke="black" stroke-width="1" ></line><text class="yAxisTickLabel" x="32" y="300.5" transform="rotate(0 32 300.5)" text-anchor="end" fill="black" font-size="10" >2.0</text></g><g ><line class="yAxisTick" x1="36.25" x2="51.25" y1="241" y2="241" stroke="black" stroke-width="1" ></line><text class="yAxisTickLabel" x="32" y="243.5" transform="rotate(0 32 243.5)" text-anchor="end" fill="black" font-size="10" >3.0</text></g><g ><line class="yAxisTick" x1="36.25" x2="51.25" y1="184" y2="184" stroke="black" stroke-width="1" ></line><text class="yAxisTickLabel" x="32" y="186.5" transform="rotate(0 32 186.5)" text-anchor="end" fill="black" font-size="10" >4.0</text></g><g ><line class="yAxisTick" x1="36.25" x2="51.25" y1="127.00000000000003" y2="127.00000000000003" stroke="black" stroke-width="1" ></line><text class="yAxisTickLabel" x="32" y="129.50000000000003" transform="rotate(0 32 129.50000000000003)" text-anchor="end" fill="black" font-size="10" >5.0</text></g><g ><line class="yAxisTick" x1="36.25" x2="51.25" y1="70" y2="70" stroke="black" stroke-width="1" ></line><text class="yAxisTickLabel" x="32" y="72.5" transform="rotate(0 32 72.5)" text-anchor="end" fill="black" font-size="10" >6.0</text></g><g ><line class="yAxisTick" x1="36.25" x2="51.25" y1="13" y2="13" stroke="black" stroke-width="1" ></line><text class="yAxisTickLabel" x="32" y="15.5" transform="rotate(0 32 15.5)" text-anchor="end" fill="black" font-size="10" >7.0</text></g><g ><line class="yAxisLine" stroke="black" stroke-width="1" x1="40" x2="40" y1="365" y2="3" ></line></g></g></g><g ><g ><g ><path d="M 110.875 412 L 110.875 355 L 171.75 355 L 171.75 412" stroke-width="0" fill="none" opacity="1" ></path><path d="M 171.75 412 L 171.75 298 L 232.625 298 L 232.625 412" stroke-width="0" fill="none" opacity="1" ></path><path d="M 232.625 412 L 232.625 298 L 293.5 298 L 293.5 412" stroke-width="0" fill="none" opacity="1" ></path><path d="M 293.5 412 L 293.5 241 L 354.375 241 L 354.375 412" stroke-width="0" fill="none" opacity="1" ></path><path d="M 354.375 412 L 354.375 269.5 L 415.25 269.5 L 415.25 412" stroke-width="0" fill="none" opacity="1" ></path><path d="M 415.25 412 L 415.25 184 L 476.125 184 L 476.125 412" stroke-width="0" fill="none" opacity="1" ></path><path d="M 476.125 412 L 476.125 355 L 537 355 L 537 412" stroke-width="0" fill="none" opacity="1" ></path><polyline points="110.875,355 171.75,355 171.75,298 232.625,298 232.625,298 293.5,298 293.5,241 354.375,241 354.375,269.5 415.25,269.5 415.25,184 476.125,184 476.125,355 537,355" stroke="blue" stroke-width="1" fill="none" ></polyline></g><circle cx="110.875" cy="355" r="3" fill="blue" opacity="1" stroke="blue" stroke-width="0" ></circle><circle cx="171.75" cy="298" r="3" fill="blue" opacity="1" stroke="blue" stroke-width="0" ></circle><circle cx="232.625" cy="298" r="3" fill="blue" opacity="1" stroke="blue" stroke-width="0" ></circle><circle cx="293.5" cy="241" r="3" fill="blue" opacity="1" stroke="blue" stroke-width="0" ></circle><circle cx="354.375" cy="269.5" r="3" fill="blue" opacity="1" stroke="blue" stroke-width="0" ></circle><circle cx="415.25" cy="184" r="3" fill="blue" opacity="1" stroke="blue" stroke-width="0" ></circle><circle cx="476.125" cy="355" r="3" fill="blue" opacity="1" stroke="blue" stroke-width="0" ></circle></g><g ><g ><path d="M 50 412 L 50 127.00000000000003 L 110.875 127.00000000000003 L 110.875 412" stroke-width="0" fill="none" opacity="1" ></path><path d="M 110.875 412 L 110.875 241 L 171.75 241 L 171.75 412" stroke-width="0" fill="none" opacity="1" ></path><path d="M 171.75 412 L 171.75 13 L 232.625 13 L 232.625 412" stroke-width="0" fill="none" opacity="1" ></path><path d="M 232.625 412 L 232.625 355 L 293.5 355 L 293.5 412" stroke-width="0" fill="none" opacity="1" ></path><path d="M 293.5 412 L 293.5 70 L 354.375 70 L 354.375 412" stroke-width="0" fill="none" opacity="1" ></path><path d="M 354.375 412 L 354.375 355 L 415.25 355 L 415.25 412" stroke-width="0" fill="none" opacity="1" ></path><path d="M 415.25 412 L 415.25 184 L 476.125 184 L 476.125 412" stroke-width="0" fill="none" opacity="1" ></path><polyline points=" 50,127.00000000000003 110.875,127.00000000000003 110.875,241 171.75,241 171.75,13 232.625,13 232.625,355 293.5,355 293.5,70 354.375,70 354.375,355 415.25,355 415.25,184 476.125,184" stroke="red" stroke-width="1" fill="none" ></polyline></g><circle cx="110.875" cy="127.00000000000003" r="3" fill="red" opacity="1" stroke="red" stroke-width="0" ></circle><circle cx="171.75" cy="241" r="3" fill="red" opacity="1" stroke="red" stroke-width="0" ></circle><circle cx="232.625" cy="13" r="3" fill="red" opacity="1" stroke="red" stroke-width="0" ></circle><circle cx="293.5" cy="355" r="3" fill="red" opacity="1" stroke="red" stroke-width="0" ></circle><circle cx="354.375" cy="70" r="3" fill="red" opacity="1" stroke="red" stroke-width="0" ></circle><circle cx="415.25" cy="355" r="3" fill="red" opacity="1" stroke="red" stroke-width="0" ></circle><circle cx="476.125" cy="184" r="3" fill="red" opacity="1" stroke="red" stroke-width="0" ></circle></g></g></g></svg>