<svg width="400" height="300"  ><g ><g ><g ><g ><line class="xAxisTick" x1="50" x2="50" y1="268.75" y2="253.75" stroke="black" stroke-width="1" ></line><text class="xAxisTickLabel" x="50" y="280.5" transform="rotate(0 50 280.5)" text-anchor="middle" fill="black" font-size="10" >0.0</text></g><g ><line class="xAxisTick" x1="98.14285714285715" x2="98.14285714285715" y1="268.75" y2="253.75" stroke="black" stroke-width="1" ></line><text class="xAxisTickLabel" x="98.14285714285715" y="280.5" transform="rotate(0 98.14285714285715 280.5)" text-anchor="middle" fill="black" font-size="10" >1.0</text></g><g ><line class="xAxisTick" x1="146.28571428571428" x2="146.28571428571428" y1="268.75" y2="253.75" stroke="black" stroke-width="1" ></line><text class="xAxisTickLabel" x="146.28571428571428" y="280.5" transform="rotate(0 146.28571428571428 280.5)" text-anchor="middle" fill="black" font-size="10" >2.0</text></g><g ><line class="xAxisTick" x1="194.42857142857144" x2="194.42857142857144" y1="268.75" y2="253.75" stroke="black" stroke-width="1" ></line><text class="xAxisTickLabel" x="194.42857142857144" y="280.5" transform="rotate(0 194.42857142857144 280.5)" text-anchor="middle" fill="black" font-size="10" >3.0</text></g><g ><line class="xAxisTick" x1="242.57142857142858" x2="242.57142857142858" y1="268.75" y2="253.75" stroke="black" stroke-width="1" ></line><text class="xAxisTickLabel" x="242.57142857142858" y="280.5" transform="rotate(0 242.57142857142858 280.5)" text-anchor="middle" fill="black" font-size="10" >4.0</text></g><g ><line class="xAxisTick" x1="290.7142857142857" x2="290.7142857142857" y1="268.75" y2="253.75" stroke="black" stroke-width="1" ></line><text class="xAxisTickLabel" x="290.7142857142857" y="280.5" transform="rotate(0 290.7142857142857 280.5)" text-anchor="middle" fill="black" font-size="10" >5.0</text></g><g ><line class="xAxisTick" x1="338.8571428571429" x2="338.8571428571429" y1="268.75" y2="253.75" stroke="black" stroke-width="1" ></line><text class="xAxisTickLabel" x="338.8571428571429" y="280.5" transform="rotate(0 338.8571428571429 280.5)" text-anchor="middle" fill="black" font-size="10" >6.0</text></g><g ><line class="xAxisTick" x1="387" x2="387" y1="268.75" y2="253.75" stroke="black" stroke-width="1" ></line><text class="xAxisTickLabel" x="387" y="280.5" transform="rotate(0 387 280.5)" text-anchor="middle" fill="black" font-size="10" >7.0</text></g><g ><line class="xAxisLine" stroke="black" stroke-width="1" x1="40" x2="397" y1="265" y2="265" ></line></g></g><g ><g ><line class="yAxisTick" x1="36.25" x2="51.25" y1="255" y2="255" stroke="black" stroke-width="1" ></line><text class="yAxisTickLabel" x="32" y="257.5" transform="rotate(0 32 257.5)" text-anchor="end" fill="black" font-size="10" >1.0</text></g><g ><line class="yAxisTick" x1="36.25" x2="51.25" y1="214.66666666666666" y2="214.66666666666666" stroke="black" stroke-width="1" ></line><text class="yAxisTickLabel" x="32" y="217.16666666666666" transform="rotate(0 32 217.16666666666666)" text-anchor="end" fill="black" font-size="10" >1.5</text></g><g ><line class="yAxisTick" x1="36.25" x2="51.25" y1="174.33333333333331" y2="174.33333333333331" stroke="black" stroke-width="1" ></line><text class="yAxisTickLabel" x="32" y="176.83333333333331" transform="rotate(0 32 176.83333333333331)" text-anchor="end" fill="black" font-size="10" >2.0</text></g><g ><line class="yAxisTick" x1="36.25" x2="51.25" y1="134" y2="134" stroke="black" stroke-width="1" ></line><text class="yAxisTickLabel" x="32" y="136.5" transform="rotate(0 32 136.5)" text-anchor="end" fill="black" font-size="10" >2.5</text></g><g ><line class="yAxisTick" x1="36.25" x2="51.25" y1="93.66666666666669" y2="93.66666666666669" stroke="black" stroke-width="1" ></line><text class="yAxisTickLabel" x="32" y="96.16666666666669" transform="rotate(0 32 96.16666666666669)" text-anchor="end" fill="black" font-size="10" >3.0</text></g><g ><line class="yAxisTick" x1="36.25" x2="51.25" y1="53.33333333333334" y2="53.33333333333334" stroke="black" stroke-width="1" ></line><text class="yAxisTickLabel" x="32" y="55.83333333333334" transform="rotate(0 32 55.83333333333334)" text-anchor="end" fill="black" font-size="10" >3.5</text></g><g ><line class="yAxisTick" x1="36.25" x2="51.25" y1="13" y2="13" stroke="black" stroke-width="1" ></line><text class="yAxisTickLabel" x="32" y="15.5" transform="rotate(0 32 15.5)" text-anchor="end" fill="black" font-size="10" >4.0</text></g><g ><line class="yAxisLine" stroke="black" stroke-width="1" x1="40" x2="40" y1="265" y2="3" ></line></g></g></g><g ><g ><g ><path d="M 50 335.6666666666667 L 50 255 L 98.14285714285714 255 L 98.14285714285714 335.6666666666667" stroke-width="0" fill="none" opacity="1" ></path><path d="M 98.14285714285715 335.6666666666667 L 98.14285714285715 174.33333333333331 L 146.2857142857143 174.33333333333331 L 146.2857142857143 335.6666666666667" stroke-width="0" fill="none" opacity="1" ></path><path d="M 146.28571428571428 335.6666666666667 L 146.28571428571428 174.33333333333331 L 194.42857142857142 174.33333333333331 L 194.42857142857142 335.6666666666667" stroke-width="0" fill="none" opacity="1" ></path><path d="M 194.42857142857144 335.6666666666667 L 194.42857142857144 93.66666666666669 L 242.57142857142858 93.66666666666669 L 242.57142857142858 335.6666666666667" stroke-width="0" fill="none" opacity="1" ></path><path d="M 242.57142857142858 335.6666666666667 L 242.57142857142858 134 L 290.7142857142857 134 L 290.7142857142857 335.6666666666667" stroke-width="0" fill="none" opacity="1" ></path><path d="M 290.7142857142857 335.6666666666667 L 290.7142857142857 13 L 338.8571428571429 13 L 338.8571428571429 335.6666666666667" stroke-width="0" fill="none" opacity="1" ></path><path d="M 338.8571428571429 335.6666666666667 L 338.8571428571429 255 L 387.00000000000006 255 L 387.00000000000006 335.6666666666667" stroke-width="0" fill="none" opacity="1" ></path><polyline points="50,255 98.14285714285715,255 98.14285714285715,174.33333333333331 146.28571428571428,174.33333333333331 146.28571428571428,174.33333333333331 194.42857142857144,174.33333333333331 194.42857142857144,93.66666666666669 242.57142857142858,93.66666666666669 242.57142857142858,134 290.7142857142857,134 290.7142857142857,13 338.8571428571429,13 338.8571428571429,255 387.00000000000006,255" stroke="blue" stroke-width="1" fill="none" ></polyline></g><circle cx="50" cy="255" r="3" fill="blue" opacity="1" stroke="blue" stroke-width="0" ></circle><circle cx="98.14285714285715" cy="174.33333333333331" r="3" fill="blue" opacity="1" stroke="blue" stroke-width="0" ></circle><circle cx="146.28571428571428" cy="174.33333333333331" r="3" fill="blue" opacity="1" stroke="blue" stroke-width="0" ></circle><circle cx="194.42857142857144" cy="93.66666666666669" r="3" fill="blue" opacity="1" stroke="blue" stroke-width="0" ></circle><circle cx="242.57142857142858" cy="134" r="3" fill="blue" opacity="1" stroke="blue" stroke-width="0" ></circle><circle cx="290.7142857142857" cy="13" r="3" fill="blue" opacity="1" stroke="blue" stroke-width="0" ></circle><circle cx="338.8571428571429" cy="255" r="3" fill="blue" opacity="1" stroke="blue" stroke-width="0" ></circle></g></g></g></svg>