<svg width="400" height="300"  ><g ><g ><g ><g ><line class="xAxisTick" x1="50" x2="50" y1="268.75" y2="253.75" stroke="black" stroke-width="1" ></line><text class="xAxisTickLabel" x="50" y="280.5" transform="rotate(0 50 280.5)" text-anchor="middle" fill="black" font-size="10" >0.0</text></g><g ><line class="xAxisTick" x1="103.91999999999999" x2="103.91999999999999" y1="268.75" y2="253.75" stroke="black" stroke-width="1" ></line><text class="xAxisTickLabel" x="103.91999999999999" y="280.5" transform="rotate(0 103.91999999999999 280.5)" text-anchor="middle" fill="black" font-size="10" >2.0</text></g><g ><line class="xAxisTick" x1="157.83999999999997" x2="157.83999999999997" y1="268.75" y2="253.75" stroke="black" stroke-width="1" ></line><text class="xAxisTickLabel" x="157.83999999999997" y="280.5" transform="rotate(0 157.83999999999997 280.5)" text-anchor="middle" fill="black" font-size="10" >4.0</text></g><g ><line class="xAxisTick" x1="211.76" x2="211.76" y1="268.75" y2="253.75" stroke="black" stroke-width="1" ></line><text class="xAxisTickLabel" x="211.76" y="280.5" transform="rotate(0 211.76 280.5)" text-anchor="middle" fill="black" font-size="10" >6.0</text></g><g ><line class="xAxisTick" x1="265.68" x2="265.68" y1="268.75" y2="253.75" stroke="black" stroke-width="1" ></line><text class="xAxisTickLabel" x="265.68" y="280.5" transform="rotate(0 265.68 280.5)" text-anchor="middle" fill="black" font-size="10" >8.0</text></g><g ><line class="xAxisTick" x1="319.6" x2="319.6" y1="268.75" y2="253.75" stroke="black" stroke-width="1" ></line><text class="xAxisTickLabel" x="319.6" y="280.5" transform="rotate(0 319.6 280.5)" text-anchor="middle" fill="black" font-size="10" >10.0</text></g><g ><line class="xAxisTick" x1="373.52" x2="373.52" y1="268.75" y2="253.75" stroke="black" stroke-width="1" ></line><text class="xAxisTickLabel" x="373.52" y="280.5" transform="rotate(0 373.52 280.5)" text-anchor="middle" fill="black" font-size="10" >12.0</text></g><g ><line class="xAxisLine" stroke="black" stroke-width="1" x1="40" x2="397" y1="265" y2="265" ></line></g></g><g ><g ><line class="yAxisTick" x1="36.25" x2="51.25" y1="239.2173913043478" y2="239.2173913043478" stroke="black" stroke-width="1" ></line><text class="yAxisTickLabel" x="32" y="241.7173913043478" transform="rotate(0 32 241.7173913043478)" text-anchor="end" fill="black" font-size="10" >0.0</text></g><g ><line class="yAxisTick" x1="36.25" x2="51.25" y1="204.14492753623188" y2="204.14492753623188" stroke="black" stroke-width="1" ></line><text class="yAxisTickLabel" x="32" y="206.64492753623188" transform="rotate(0 32 206.64492753623188)" text-anchor="end" fill="black" font-size="10" >1.0</text></g><g ><line class="yAxisTick" x1="36.25" x2="51.25" y1="169.07246376811594" y2="169.07246376811594" stroke="black" stroke-width="1" ></line><text class="yAxisTickLabel" x="32" y="171.57246376811594" transform="rotate(0 32 171.57246376811594)" text-anchor="end" fill="black" font-size="10" >2.0</text></g><g ><line class="yAxisTick" x1="36.25" x2="51.25" y1="134.00000000000003" y2="134.00000000000003" stroke="black" stroke-width="1" ></line><text class="yAxisTickLabel" x="32" y="136.50000000000003" transform="rotate(0 32 136.50000000000003)" text-anchor="end" fill="black" font-size="10" >3.0</text></g><g ><line class="yAxisTick" x1="36.25" x2="51.25" y1="98.92753623188406" y2="98.92753623188406" stroke="black" stroke-width="1" ></line><text class="yAxisTickLabel" x="32" y="101.42753623188406" transform="rotate(0 32 101.42753623188406)" text-anchor="end" fill="black" font-size="10" >4.0</text></g><g ><line class="yAxisTick" x1="36.25" x2="51.25" y1="63.855072463768124" y2="63.855072463768124" stroke="black" stroke-width="1" ></line><text class="yAxisTickLabel" x="32" y="66.35507246376812" transform="rotate(0 32 66.35507246376812)" text-anchor="end" fill="black" font-size="10" >5.0</text></g><g ><line class="yAxisTick" x1="36.25" x2="51.25" y1="28.782608695652186" y2="28.782608695652186" stroke="black" stroke-width="1" ></line><text class="yAxisTickLabel" x="32" y="31.282608695652186" transform="rotate(0 32 31.282608695652186)" text-anchor="end" fill="black" font-size="10" >6.0</text></g><g ><line class="yAxisLine" stroke="black" stroke-width="1" x1="40" x2="40" y1="265" y2="3" ></line></g></g></g><g ><g ><rect x="50.000000000000014" y="223.43478260869566" height="31.565217391304344" width="26.959999999999997" fill="blue" opacity="1" ></rect><rect x="49.99999999999999" y="188.36231884057975" height="31.565217391304344" width="53.919999999999995" fill="blue" opacity="1" ></rect><rect x="49.99999999999999" y="153.28985507246378" height="31.565217391304344" width="53.919999999999995" fill="blue" opacity="1" ></rect><rect x="50" y="118.21739130434784" height="31.565217391304344" width="80.88" fill="blue" opacity="1" ></rect><rect x="50" y="83.1449275362319" height="31.565217391304344" width="67.39999999999999" fill="blue" opacity="1" ></rect><rect x="49.999999999999986" y="48.072463768115966" height="31.565217391304344" width="107.83999999999999" fill="blue" opacity="1" ></rect><rect x="50.000000000000014" y="13.000000000000028" height="31.565217391304344" width="26.959999999999997" fill="blue" opacity="1" ></rect></g><g ><rect x="76.96000000000001" y="223.43478260869566" height="31.565217391304344" width="134.79999999999998" fill="red" opacity="1" ></rect><rect x="103.91999999999999" y="188.36231884057975" height="31.565217391304344" width="80.88" fill="red" opacity="1" ></rect><rect x="103.92000000000002" y="153.28985507246378" height="31.565217391304344" width="188.71999999999997" fill="red" opacity="1" ></rect><rect x="130.87999999999997" y="118.21739130434784" height="31.565217391304344" width="26.959999999999997" fill="red" opacity="1" ></rect><rect x="117.39999999999998" y="83.1449275362319" height="31.565217391304344" width="161.76" fill="red" opacity="1" ></rect><rect x="157.83999999999997" y="48.072463768115966" height="31.565217391304344" width="26.959999999999997" fill="red" opacity="1" ></rect><rect x="76.96" y="13.000000000000028" height="31.565217391304344" width="107.83999999999999" fill="red" opacity="1" ></rect></g><g ><rect x="211.76" y="223.43478260869566" height="31.565217391304344" width="40.44" fill="violet" opacity="1" ></rect><rect x="184.79999999999998" y="188.36231884057975" height="31.565217391304344" width="0" fill="violet" opacity="1" ></rect><rect x="292.64" y="153.28985507246378" height="31.565217391304344" width="80.88" fill="violet" opacity="1" ></rect><rect x="157.84" y="118.21739130434784" height="31.565217391304344" width="215.67999999999998" fill="violet" opacity="1" ></rect><rect x="279.16" y="83.1449275362319" height="31.565217391304344" width="107.83999999999999" fill="violet" opacity="1" ></rect><rect x="184.79999999999998" y="48.072463768115966" height="31.565217391304344" width="53.919999999999995" fill="violet" opacity="1" ></rect><rect x="184.79999999999998" y="13.000000000000028" height="31.565217391304344" width="26.959999999999997" fill="violet" opacity="1" ></rect></g></g></g></svg>