<svg width="550" height="400"  ><g ><g ><g ><g ><line class="xAxisTick" x1="50" x2="50" y1="368.75" y2="353.75" stroke="black" stroke-width="1" ></line><text class="xAxisTickLabel" x="50" y="380.5" transform="rotate(0 50 380.5)" text-anchor="middle" fill="black" font-size="10" >0.0</text></g><g ><line class="xAxisTick" x1="127.91999999999999" x2="127.91999999999999" y1="368.75" y2="353.75" stroke="black" stroke-width="1" ></line><text class="xAxisTickLabel" x="127.91999999999999" y="380.5" transform="rotate(0 127.91999999999999 380.5)" text-anchor="middle" fill="black" font-size="10" >2.0</text></g><g ><line class="xAxisTick" x1="205.84" x2="205.84" y1="368.75" y2="353.75" stroke="black" stroke-width="1" ></line><text class="xAxisTickLabel" x="205.84" y="380.5" transform="rotate(0 205.84 380.5)" text-anchor="middle" fill="black" font-size="10" >4.0</text></g><g ><line class="xAxisTick" x1="283.76" x2="283.76" y1="368.75" y2="353.75" stroke="black" stroke-width="1" ></line><text class="xAxisTickLabel" x="283.76" y="380.5" transform="rotate(0 283.76 380.5)" text-anchor="middle" fill="black" font-size="10" >6.0</text></g><g ><line class="xAxisTick" x1="361.68" x2="361.68" y1="368.75" y2="353.75" stroke="black" stroke-width="1" ></line><text class="xAxisTickLabel" x="361.68" y="380.5" transform="rotate(0 361.68 380.5)" text-anchor="middle" fill="black" font-size="10" >8.0</text></g><g ><line class="xAxisTick" x1="439.6" x2="439.6" y1="368.75" y2="353.75" stroke="black" stroke-width="1" ></line><text class="xAxisTickLabel" x="439.6" y="380.5" transform="rotate(0 439.6 380.5)" text-anchor="middle" fill="black" font-size="10" >10.0</text></g><g ><line class="xAxisTick" x1="517.52" x2="517.52" y1="368.75" y2="353.75" stroke="black" stroke-width="1" ></line><text class="xAxisTickLabel" x="517.52" y="380.5" transform="rotate(0 517.52 380.5)" text-anchor="middle" fill="black" font-size="10" >12.0</text></g><g ><line class="xAxisLine" stroke="black" stroke-width="1" x1="40" x2="547" y1="365" y2="365" ></line></g></g><g ><g ><line class="yAxisTick" x1="36.25" x2="51.25" y1="332.69565217391306" y2="332.69565217391306" stroke="black" stroke-width="1" ></line><text class="yAxisTickLabel" x="32" y="335.19565217391306" transform="rotate(0 32 335.19565217391306)" text-anchor="end" fill="black" font-size="10" >0.0</text></g><g ><line class="yAxisTick" x1="36.25" x2="51.25" y1="283.1304347826087" y2="283.1304347826087" stroke="black" stroke-width="1" ></line><text class="yAxisTickLabel" x="32" y="285.6304347826087" transform="rotate(0 32 285.6304347826087)" text-anchor="end" fill="black" font-size="10" >1.0</text></g><g ><line class="yAxisTick" x1="36.25" x2="51.25" y1="233.56521739130434" y2="233.56521739130434" stroke="black" stroke-width="1" ></line><text class="yAxisTickLabel" x="32" y="236.06521739130434" transform="rotate(0 32 236.06521739130434)" text-anchor="end" fill="black" font-size="10" >2.0</text></g><g ><line class="yAxisTick" x1="36.25" x2="51.25" y1="184" y2="184" stroke="black" stroke-width="1" ></line><text class="yAxisTickLabel" x="32" y="186.5" transform="rotate(0 32 186.5)" text-anchor="end" fill="black" font-size="10" >3.0</text></g><g ><line class="yAxisTick" x1="36.25" x2="51.25" y1="134.43478260869568" y2="134.43478260869568" stroke="black" stroke-width="1" ></line><text class="yAxisTickLabel" x="32" y="136.93478260869568" transform="rotate(0 32 136.93478260869568)" text-anchor="end" fill="black" font-size="10" >4.0</text></g><g ><line class="yAxisTick" x1="36.25" x2="51.25" y1="84.86956521739137" y2="84.86956521739137" stroke="black" stroke-width="1" ></line><text class="yAxisTickLabel" x="32" y="87.36956521739137" transform="rotate(0 32 87.36956521739137)" text-anchor="end" fill="black" font-size="10" >5.0</text></g><g ><line class="yAxisTick" x1="36.25" x2="51.25" y1="35.304347826086996" y2="35.304347826086996" stroke="black" stroke-width="1" ></line><text class="yAxisTickLabel" x="32" y="37.804347826086996" transform="rotate(0 32 37.804347826086996)" text-anchor="end" fill="black" font-size="10" >6.0</text></g><g ><line class="yAxisLine" stroke="black" stroke-width="1" x1="40" x2="40" y1="365" y2="3" ></line></g></g></g><g ><g ><rect x="50.00000000000001" y="310.39130434782606" height="44.608695652173914" width="38.96" fill="blue" opacity="1" ></rect><rect x="49.999999999999986" y="260.82608695652175" height="44.608695652173914" width="77.92" fill="blue" opacity="1" ></rect><rect x="49.999999999999986" y="211.26086956521738" height="44.608695652173914" width="77.92" fill="blue" opacity="1" ></rect><rect x="50" y="161.69565217391306" height="44.608695652173914" width="116.88" fill="blue" opacity="1" ></rect><rect x="49.99999999999997" y="112.13043478260872" height="44.608695652173914" width="97.4" fill="blue" opacity="1" ></rect><rect x="50" y="62.56521739130437" height="44.608695652173914" width="155.84" fill="blue" opacity="1" ></rect><rect x="50.00000000000001" y="13.000000000000057" height="44.608695652173914" width="38.96" fill="blue" opacity="1" ></rect></g><g ><rect x="88.95999999999998" y="310.39130434782606" height="44.608695652173914" width="194.8" fill="red" opacity="1" ></rect><rect x="127.91999999999999" y="260.82608695652175" height="44.608695652173914" width="116.88" fill="red" opacity="1" ></rect><rect x="127.91999999999996" y="211.26086956521738" height="44.608695652173914" width="272.72" fill="red" opacity="1" ></rect><rect x="166.88" y="161.69565217391306" height="44.608695652173914" width="38.96" fill="red" opacity="1" ></rect><rect x="147.40000000000003" y="112.13043478260872" height="44.608695652173914" width="233.76" fill="red" opacity="1" ></rect><rect x="205.83999999999997" y="62.56521739130437" height="44.608695652173914" width="38.96" fill="red" opacity="1" ></rect><rect x="88.95999999999998" y="13.000000000000057" height="44.608695652173914" width="155.84" fill="red" opacity="1" ></rect></g><g ><rect x="283.76" y="310.39130434782606" height="44.608695652173914" width="58.44" fill="violet" opacity="1" ></rect><rect x="244.79999999999998" y="260.82608695652175" height="44.608695652173914" width="0" fill="violet" opacity="1" ></rect><rect x="400.64" y="211.26086956521738" height="44.608695652173914" width="116.88" fill="violet" opacity="1" ></rect><rect x="205.83999999999997" y="161.69565217391306" height="44.608695652173914" width="311.68" fill="violet" opacity="1" ></rect><rect x="381.15999999999997" y="112.13043478260872" height="44.608695652173914" width="155.84" fill="violet" opacity="1" ></rect><rect x="244.79999999999995" y="62.56521739130437" height="44.608695652173914" width="77.92" fill="violet" opacity="1" ></rect><rect x="244.79999999999998" y="13.000000000000057" height="44.608695652173914" width="38.96" fill="violet" opacity="1" ></rect></g></g></g></svg>