<svg width="400" height="300"  ><g ><g ><g ><g ><line class="xAxisTick" x1="50" x2="50" y1="268.75" y2="253.75" stroke="black" stroke-width="1" ></line><text class="xAxisTickLabel" x="50" y="280.5" transform="rotate(0 50 280.5)" text-anchor="middle" fill="black" font-size="10" >0.0</text></g><g ><line class="xAxisTick" x1="92.125" x2="92.125" y1="268.75" y2="253.75" stroke="black" stroke-width="1" ></line><text class="xAxisTickLabel" x="92.125" y="280.5" transform="rotate(0 92.125 280.5)" text-anchor="middle" fill="black" font-size="10" >0.5</text></g><g ><line class="xAxisTick" x1="134.25000000000003" x2="134.25000000000003" y1="268.75" y2="253.75" stroke="black" stroke-width="1" ></line><text class="xAxisTickLabel" x="134.25000000000003" y="280.5" transform="rotate(0 134.25000000000003 280.5)" text-anchor="middle" fill="black" font-size="10" >1.0</text></g><g ><line class="xAxisTick" x1="176.37500000000003" x2="176.37500000000003" y1="268.75" y2="253.75" stroke="black" stroke-width="1" ></line><text class="xAxisTickLabel" x="176.37500000000003" y="280.5" transform="rotate(0 176.37500000000003 280.5)" text-anchor="middle" fill="black" font-size="10" >1.5</text></g><g ><line class="xAxisTick" x1="218.50000000000003" x2="218.50000000000003" y1="268.75" y2="253.75" stroke="black" stroke-width="1" ></line><text class="xAxisTickLabel" x="218.50000000000003" y="280.5" transform="rotate(0 218.50000000000003 280.5)" text-anchor="middle" fill="black" font-size="10" >2.0</text></g><g ><line class="xAxisTick" x1="260.62500000000006" x2="260.62500000000006" y1="268.75" y2="253.75" stroke="black" stroke-width="1" ></line><text class="xAxisTickLabel" x="260.62500000000006" y="280.5" transform="rotate(0 260.62500000000006 280.5)" text-anchor="middle" fill="black" font-size="10" >2.5</text></g><g ><line class="xAxisTick" x1="302.75000000000006" x2="302.75000000000006" y1="268.75" y2="253.75" stroke="black" stroke-width="1" ></line><text class="xAxisTickLabel" x="302.75000000000006" y="280.5" transform="rotate(0 302.75000000000006 280.5)" text-anchor="middle" fill="black" font-size="10" >3.0</text></g><g ><line class="xAxisTick" x1="344.87500000000006" x2="344.87500000000006" y1="268.75" y2="253.75" stroke="black" stroke-width="1" ></line><text class="xAxisTickLabel" x="344.87500000000006" y="280.5" transform="rotate(0 344.87500000000006 280.5)" text-anchor="middle" fill="black" font-size="10" >3.5</text></g><g ><line class="xAxisTick" x1="387.00000000000006" x2="387.00000000000006" y1="268.75" y2="253.75" stroke="black" stroke-width="1" ></line><text class="xAxisTickLabel" x="387.00000000000006" y="280.5" transform="rotate(0 387.00000000000006 280.5)" text-anchor="middle" fill="black" font-size="10" >4.0</text></g><g ><line class="xAxisLine" stroke="black" stroke-width="1" x1="40" x2="397" y1="265" y2="265" ></line></g></g><g ><g ><line class="yAxisTick" x1="36.25" x2="51.25" y1="237.862660944206" y2="237.862660944206" stroke="black" stroke-width="1" ></line><text class="yAxisTickLabel" x="32" y="240.362660944206" transform="rotate(0 32 240.362660944206)" text-anchor="end" fill="black" font-size="10" >0.0</text></g><g ><line class="yAxisTick" x1="36.25" x2="51.25" y1="203.24177396280402" y2="203.24177396280402" stroke="black" stroke-width="1" ></line><text class="yAxisTickLabel" x="32" y="205.74177396280402" transform="rotate(0 32 205.74177396280402)" text-anchor="end" fill="black" font-size="10" >1.0</text></g><g ><line class="yAxisTick" x1="36.25" x2="51.25" y1="168.620886981402" y2="168.620886981402" stroke="black" stroke-width="1" ></line><text class="yAxisTickLabel" x="32" y="171.120886981402" transform="rotate(0 32 171.120886981402)" text-anchor="end" fill="black" font-size="10" >2.0</text></g><g ><line class="yAxisTick" x1="36.25" x2="51.25" y1="134" y2="134" stroke="black" stroke-width="1" ></line><text class="yAxisTickLabel" x="32" y="136.5" transform="rotate(0 32 136.5)" text-anchor="end" fill="black" font-size="10" >3.0</text></g><g ><line class="yAxisTick" x1="36.25" x2="51.25" y1="99.37911301859802" y2="99.37911301859802" stroke="black" stroke-width="1" ></line><text class="yAxisTickLabel" x="32" y="101.87911301859802" transform="rotate(0 32 101.87911301859802)" text-anchor="end" fill="black" font-size="10" >4.0</text></g><g ><line class="yAxisTick" x1="36.25" x2="51.25" y1="64.75822603719601" y2="64.75822603719601" stroke="black" stroke-width="1" ></line><text class="yAxisTickLabel" x="32" y="67.25822603719601" transform="rotate(0 32 67.25822603719601)" text-anchor="end" fill="black" font-size="10" >5.0</text></g><g ><line class="yAxisTick" x1="36.25" x2="51.25" y1="30.137339055794" y2="30.137339055794" stroke="black" stroke-width="1" ></line><text class="yAxisTickLabel" x="32" y="32.637339055794" transform="rotate(0 32 32.637339055794)" text-anchor="end" fill="black" font-size="10" >6.0</text></g><g ><line class="yAxisLine" stroke="black" stroke-width="1" x1="40" x2="40" y1="265" y2="3" ></line></g></g></g><g ><g ><rect x="50.000000000000014" y="220.72532188841203" height="34.27467811158798" width="84.25000000000001" fill="blue" opacity="1" ></rect><rect x="50" y="186.10443490701002" height="34.27467811158798" width="168.50000000000003" fill="blue" opacity="1" ></rect><rect x="50" y="151.48354792560804" height="34.27467811158798" width="168.50000000000003" fill="blue" opacity="1" ></rect><rect x="50" y="116.86266094420603" height="34.27467811158798" width="252.75000000000006" fill="blue" opacity="1" ></rect><rect x="50.00000000000003" y="82.24177396280402" height="34.27467811158798" width="210.62500000000003" fill="blue" opacity="1" ></rect><rect x="50" y="47.62088698140201" height="34.27467811158798" width="337.00000000000006" fill="blue" opacity="1" ></rect><rect x="50.000000000000014" y="13" height="34.27467811158798" width="84.25000000000001" fill="blue" opacity="1" ></rect></g></g></g></svg>