<svg width="550" height="400"  ><g ><g ><g ><g ><line class="xAxisTick" x1="50" x2="50" y1="368.75" y2="353.75" stroke="black" stroke-width="1" ></line><text class="xAxisTickLabel" x="50" y="380.5" transform="rotate(0 50 380.5)" text-anchor="middle" fill="black" font-size="10" >0.0</text></g><g ><line class="xAxisTick" x1="110.875" x2="110.875" y1="368.75" y2="353.75" stroke="black" stroke-width="1" ></line><text class="xAxisTickLabel" x="110.875" y="380.5" transform="rotate(0 110.875 380.5)" text-anchor="middle" fill="black" font-size="10" >0.5</text></g><g ><line class="xAxisTick" x1="171.75" x2="171.75" y1="368.75" y2="353.75" stroke="black" stroke-width="1" ></line><text class="xAxisTickLabel" x="171.75" y="380.5" transform="rotate(0 171.75 380.5)" text-anchor="middle" fill="black" font-size="10" >1.0</text></g><g ><line class="xAxisTick" x1="232.625" x2="232.625" y1="368.75" y2="353.75" stroke="black" stroke-width="1" ></line><text class="xAxisTickLabel" x="232.625" y="380.5" transform="rotate(0 232.625 380.5)" text-anchor="middle" fill="black" font-size="10" >1.5</text></g><g ><line class="xAxisTick" x1="293.5" x2="293.5" y1="368.75" y2="353.75" stroke="black" stroke-width="1" ></line><text class="xAxisTickLabel" x="293.5" y="380.5" transform="rotate(0 293.5 380.5)" text-anchor="middle" fill="black" font-size="10" >2.0</text></g><g ><line class="xAxisTick" x1="354.375" x2="354.375" y1="368.75" y2="353.75" stroke="black" stroke-width="1" ></line><text class="xAxisTickLabel" x="354.375" y="380.5" transform="rotate(0 354.375 380.5)" text-anchor="middle" fill="black" font-size="10" >2.5</text></g><g ><line class="xAxisTick" x1="415.25" x2="415.25" y1="368.75" y2="353.75" stroke="black" stroke-width="1" ></line><text class="xAxisTickLabel" x="415.25" y="380.5" transform="rotate(0 415.25 380.5)" text-anchor="middle" fill="black" font-size="10" >3.0</text></g><g ><line class="xAxisTick" x1="476.125" x2="476.125" y1="368.75" y2="353.75" stroke="black" stroke-width="1" ></line><text class="xAxisTickLabel" x="476.125" y="380.5" transform="rotate(0 476.125 380.5)" text-anchor="middle" fill="black" font-size="10" >3.5</text></g><g ><line class="xAxisTick" x1="537" x2="537" y1="368.75" y2="353.75" stroke="black" stroke-width="1" ></line><text class="xAxisTickLabel" x="537" y="380.5" transform="rotate(0 537 380.5)" text-anchor="middle" fill="black" font-size="10" >4.0</text></g><g ><line class="xAxisLine" stroke="black" stroke-width="1" x1="40" x2="547" y1="365" y2="365" ></line></g></g><g ><g ><line class="yAxisTick" x1="36.25" x2="51.25" y1="330.78111587982835" y2="330.78111587982835" stroke="black" stroke-width="1" ></line><text class="yAxisTickLabel" x="32" y="333.28111587982835" transform="rotate(0 32 333.28111587982835)" text-anchor="end" fill="black" font-size="10" >0.0</text></g><g ><line class="yAxisTick" x1="36.25" x2="51.25" y1="281.85407725321886" y2="281.85407725321886" stroke="black" stroke-width="1" ></line><text class="yAxisTickLabel" x="32" y="284.35407725321886" transform="rotate(0 32 284.35407725321886)" text-anchor="end" fill="black" font-size="10" >1.0</text></g><g ><line class="yAxisTick" x1="36.25" x2="51.25" y1="232.92703862660946" y2="232.92703862660946" stroke="black" stroke-width="1" ></line><text class="yAxisTickLabel" x="32" y="235.42703862660946" transform="rotate(0 32 235.42703862660946)" text-anchor="end" fill="black" font-size="10" >2.0</text></g><g ><line class="yAxisTick" x1="36.25" x2="51.25" y1="184.00000000000003" y2="184.00000000000003" stroke="black" stroke-width="1" ></line><text class="yAxisTickLabel" x="32" y="186.50000000000003" transform="rotate(0 32 186.50000000000003)" text-anchor="end" fill="black" font-size="10" >3.0</text></g><g ><line class="yAxisTick" x1="36.25" x2="51.25" y1="135.07296137339057" y2="135.07296137339057" stroke="black" stroke-width="1" ></line><text class="yAxisTickLabel" x="32" y="137.57296137339057" transform="rotate(0 32 137.57296137339057)" text-anchor="end" fill="black" font-size="10" >4.0</text></g><g ><line class="yAxisTick" x1="36.25" x2="51.25" y1="86.14592274678114" y2="86.14592274678114" stroke="black" stroke-width="1" ></line><text class="yAxisTickLabel" x="32" y="88.64592274678114" transform="rotate(0 32 88.64592274678114)" text-anchor="end" fill="black" font-size="10" >5.0</text></g><g ><line class="yAxisTick" x1="36.25" x2="51.25" y1="37.21888412017171" y2="37.21888412017171" stroke="black" stroke-width="1" ></line><text class="yAxisTickLabel" x="32" y="39.71888412017171" transform="rotate(0 32 39.71888412017171)" text-anchor="end" fill="black" font-size="10" >6.0</text></g><g ><line class="yAxisLine" stroke="black" stroke-width="1" x1="40" x2="40" y1="365" y2="3" ></line></g></g></g><g ><g ><rect x="50" y="306.56223175965664" height="48.437768240343345" width="121.75" fill="blue" opacity="1" ></rect><rect x="50" y="257.6351931330472" height="48.437768240343345" width="243.5" fill="blue" opacity="1" ></rect><rect x="50" y="208.70815450643778" height="48.437768240343345" width="243.5" fill="blue" opacity="1" ></rect><rect x="50" y="159.78111587982835" height="48.437768240343345" width="365.25" fill="blue" opacity="1" ></rect><rect x="50" y="110.85407725321892" height="48.437768240343345" width="304.375" fill="blue" opacity="1" ></rect><rect x="50" y="61.92703862660949" height="48.437768240343345" width="487" fill="blue" opacity="1" ></rect><rect x="50" y="13.000000000000057" height="48.437768240343345" width="121.75" fill="blue" opacity="1" ></rect></g></g></g></svg>