<svg width="550" height="400"  ><g ><g ><g ><g ><line class="xAxisTick" x1="81.76086956521739" x2="81.76086956521739" y1="368.75" y2="353.75" stroke="black" stroke-width="1" ></line><text class="xAxisTickLabel" x="81.76086956521739" y="380.5" transform="rotate(0 81.76086956521739 380.5)" text-anchor="middle" fill="black" font-size="10" >0.0</text></g><g ><line class="xAxisTick" x1="152.34057971014494" x2="152.34057971014494" y1="368.75" y2="353.75" stroke="black" stroke-width="1" ></line><text class="xAxisTickLabel" x="152.34057971014494" y="380.5" transform="rotate(0 152.34057971014494 380.5)" text-anchor="middle" fill="black" font-size="10" >1.0</text></g><g ><line class="xAxisTick" x1="222.92028985507244" x2="222.92028985507244" y1="368.75" y2="353.75" stroke="black" stroke-width="1" ></line><text class="xAxisTickLabel" x="222.92028985507244" y="380.5" transform="rotate(0 222.92028985507244 380.5)" text-anchor="middle" fill="black" font-size="10" >2.0</text></g><g ><line class="xAxisTick" x1="293.5" x2="293.5" y1="368.75" y2="353.75" stroke="black" stroke-width="1" ></line><text class="xAxisTickLabel" x="293.5" y="380.5" transform="rotate(0 293.5 380.5)" text-anchor="middle" fill="black" font-size="10" >3.0</text></g><g ><line class="xAxisTick" x1="364.07971014492756" x2="364.07971014492756" y1="368.75" y2="353.75" stroke="black" stroke-width="1" ></line><text class="xAxisTickLabel" x="364.07971014492756" y="380.5" transform="rotate(0 364.07971014492756 380.5)" text-anchor="middle" fill="black" font-size="10" >4.0</text></g><g ><line class="xAxisTick" x1="434.65942028985506" x2="434.65942028985506" y1="368.75" y2="353.75" stroke="black" stroke-width="1" ></line><text class="xAxisTickLabel" x="434.65942028985506" y="380.5" transform="rotate(0 434.65942028985506 380.5)" text-anchor="middle" fill="black" font-size="10" >5.0</text></g><g ><line class="xAxisTick" x1="505.2391304347826" x2="505.2391304347826" y1="368.75" y2="353.75" stroke="black" stroke-width="1" ></line><text class="xAxisTickLabel" x="505.2391304347826" y="380.5" transform="rotate(0 505.2391304347826 380.5)" text-anchor="middle" fill="black" font-size="10" >6.0</text></g><g ><line class="xAxisLine" stroke="black" stroke-width="1" x1="40" x2="547" y1="365" y2="365" ></line></g></g><g ><g ><line class="yAxisTick" x1="36.25" x2="51.25" y1="355" y2="355" stroke="black" stroke-width="1" ></line><text class="yAxisTickLabel" x="32" y="357.5" transform="rotate(0 32 357.5)" text-anchor="end" fill="black" font-size="10" >0.0</text></g><g ><line class="yAxisTick" x1="36.25" x2="51.25" y1="300.28" y2="300.28" stroke="black" stroke-width="1" ></line><text class="yAxisTickLabel" x="32" y="302.78" transform="rotate(0 32 302.78)" text-anchor="end" fill="black" font-size="10" >2.0</text></g><g ><line class="yAxisTick" x1="36.25" x2="51.25" y1="245.56" y2="245.56" stroke="black" stroke-width="1" ></line><text class="yAxisTickLabel" x="32" y="248.06" transform="rotate(0 32 248.06)" text-anchor="end" fill="black" font-size="10" >4.0</text></g><g ><line class="yAxisTick" x1="36.25" x2="51.25" y1="190.83999999999997" y2="190.83999999999997" stroke="black" stroke-width="1" ></line><text class="yAxisTickLabel" x="32" y="193.33999999999997" transform="rotate(0 32 193.33999999999997)" text-anchor="end" fill="black" font-size="10" >6.0</text></g><g ><line class="yAxisTick" x1="36.25" x2="51.25" y1="136.11999999999998" y2="136.11999999999998" stroke="black" stroke-width="1" ></line><text class="yAxisTickLabel" x="32" y="138.61999999999998" transform="rotate(0 32 138.61999999999998)" text-anchor="end" fill="black" font-size="10" >8.0</text></g><g ><line class="yAxisTick" x1="36.25" x2="51.25" y1="81.39999999999998" y2="81.39999999999998" stroke="black" stroke-width="1" ></line><text class="yAxisTickLabel" x="32" y="83.89999999999998" transform="rotate(0 32 83.89999999999998)" text-anchor="end" fill="black" font-size="10" >10.0</text></g><g ><line class="yAxisTick" x1="36.25" x2="51.25" y1="26.67999999999995" y2="26.67999999999995" stroke="black" stroke-width="1" ></line><text class="yAxisTickLabel" x="32" y="29.17999999999995" transform="rotate(0 32 29.17999999999995)" text-anchor="end" fill="black" font-size="10" >12.0</text></g><g ><line class="yAxisLine" stroke="black" stroke-width="1" x1="40" x2="40" y1="365" y2="3" ></line></g></g></g><g ><g ><rect x="50" y="327.64" height="27.360000000000003" width="63.52173913043478" fill="blue" opacity="1" ></rect><rect x="120.57971014492753" y="300.28" height="54.720000000000006" width="63.52173913043478" fill="blue" opacity="1" ></rect><rect x="191.1594202898551" y="300.28" height="54.720000000000006" width="63.52173913043478" fill="blue" opacity="1" ></rect><rect x="261.7391304347826" y="272.92" height="82.08000000000001" width="63.52173913043478" fill="blue" opacity="1" ></rect><rect x="332.31884057971007" y="286.6" height="68.4" width="63.52173913043478" fill="blue" opacity="1" ></rect><rect x="402.89855072463763" y="245.56" height="109.44000000000001" width="63.52173913043478" fill="blue" opacity="1" ></rect><rect x="473.47826086956513" y="327.64" height="27.360000000000003" width="63.52173913043478" fill="blue" opacity="1" ></rect></g><g ><rect x="50" y="190.83999999999997" height="136.8" width="63.52173913043478" fill="red" opacity="1" ></rect><rect x="120.57971014492753" y="218.2" height="82.08000000000001" width="63.52173913043478" fill="red" opacity="1" ></rect><rect x="191.1594202898551" y="108.75999999999999" height="191.52" width="63.52173913043478" fill="red" opacity="1" ></rect><rect x="261.7391304347826" y="245.56" height="27.360000000000003" width="63.52173913043478" fill="red" opacity="1" ></rect><rect x="332.31884057971007" y="122.43999999999997" height="164.16000000000003" width="63.52173913043478" fill="red" opacity="1" ></rect><rect x="402.89855072463763" y="218.2" height="27.360000000000003" width="63.52173913043478" fill="red" opacity="1" ></rect><rect x="473.47826086956513" y="218.2" height="109.44000000000001" width="63.52173913043478" fill="red" opacity="1" ></rect></g><g ><rect x="50" y="149.79999999999998" height="41.040000000000006" width="63.52173913043478" fill="violet" opacity="1" ></rect><rect x="120.57971014492753" y="218.2" height="0" width="63.52173913043478" fill="violet" opacity="1" ></rect><rect x="191.1594202898551" y="26.67999999999995" height="82.08000000000001" width="63.52173913043478" fill="violet" opacity="1" ></rect><rect x="261.7391304347826" y="26.67999999999995" height="218.88000000000002" width="63.52173913043478" fill="violet" opacity="1" ></rect><rect x="332.31884057971007" y="12.999999999999943" height="109.44000000000001" width="63.52173913043478" fill="violet" opacity="1" ></rect><rect x="402.89855072463763" y="163.48" height="54.720000000000006" width="63.52173913043478" fill="violet" opacity="1" ></rect><rect x="473.47826086956513" y="190.83999999999997" height="27.360000000000003" width="63.52173913043478" fill="violet" opacity="1" ></rect></g></g></g></svg>