<svg width="400" height="300"  ><g ><g ><g ><g ><line class="xAxisTick" x1="71.97826086956522" x2="71.97826086956522" y1="268.75" y2="253.75" stroke="black" stroke-width="1" ></line><text class="xAxisTickLabel" x="71.97826086956522" y="280.5" transform="rotate(0 71.97826086956522 280.5)" text-anchor="middle" fill="black" font-size="10" >0.0</text></g><g ><line class="xAxisTick" x1="120.81884057971016" x2="120.81884057971016" y1="268.75" y2="253.75" stroke="black" stroke-width="1" ></line><text class="xAxisTickLabel" x="120.81884057971016" y="280.5" transform="rotate(0 120.81884057971016 280.5)" text-anchor="middle" fill="black" font-size="10" >1.0</text></g><g ><line class="xAxisTick" x1="169.65942028985506" x2="169.65942028985506" y1="268.75" y2="253.75" stroke="black" stroke-width="1" ></line><text class="xAxisTickLabel" x="169.65942028985506" y="280.5" transform="rotate(0 169.65942028985506 280.5)" text-anchor="middle" fill="black" font-size="10" >2.0</text></g><g ><line class="xAxisTick" x1="218.5" x2="218.5" y1="268.75" y2="253.75" stroke="black" stroke-width="1" ></line><text class="xAxisTickLabel" x="218.5" y="280.5" transform="rotate(0 218.5 280.5)" text-anchor="middle" fill="black" font-size="10" >3.0</text></g><g ><line class="xAxisTick" x1="267.34057971014494" x2="267.34057971014494" y1="268.75" y2="253.75" stroke="black" stroke-width="1" ></line><text class="xAxisTickLabel" x="267.34057971014494" y="280.5" transform="rotate(0 267.34057971014494 280.5)" text-anchor="middle" fill="black" font-size="10" >4.0</text></g><g ><line class="xAxisTick" x1="316.1811594202899" x2="316.1811594202899" y1="268.75" y2="253.75" stroke="black" stroke-width="1" ></line><text class="xAxisTickLabel" x="316.1811594202899" y="280.5" transform="rotate(0 316.1811594202899 280.5)" text-anchor="middle" fill="black" font-size="10" >5.0</text></g><g ><line class="xAxisTick" x1="365.0217391304348" x2="365.0217391304348" y1="268.75" y2="253.75" stroke="black" stroke-width="1" ></line><text class="xAxisTickLabel" x="365.0217391304348" y="280.5" transform="rotate(0 365.0217391304348 280.5)" text-anchor="middle" fill="black" font-size="10" >6.0</text></g><g ><line class="xAxisLine" stroke="black" stroke-width="1" x1="40" x2="397" y1="265" y2="265" ></line></g></g><g ><g ><line class="yAxisTick" x1="36.25" x2="51.25" y1="255" y2="255" stroke="black" stroke-width="1" ></line><text class="yAxisTickLabel" x="32" y="257.5" transform="rotate(0 32 257.5)" text-anchor="end" fill="black" font-size="10" >0.0</text></g><g ><line class="yAxisTick" x1="36.25" x2="51.25" y1="216.28" y2="216.28" stroke="black" stroke-width="1" ></line><text class="yAxisTickLabel" x="32" y="218.78" transform="rotate(0 32 218.78)" text-anchor="end" fill="black" font-size="10" >2.0</text></g><g ><line class="yAxisTick" x1="36.25" x2="51.25" y1="177.55999999999997" y2="177.55999999999997" stroke="black" stroke-width="1" ></line><text class="yAxisTickLabel" x="32" y="180.05999999999997" transform="rotate(0 32 180.05999999999997)" text-anchor="end" fill="black" font-size="10" >4.0</text></g><g ><line class="yAxisTick" x1="36.25" x2="51.25" y1="138.83999999999997" y2="138.83999999999997" stroke="black" stroke-width="1" ></line><text class="yAxisTickLabel" x="32" y="141.33999999999997" transform="rotate(0 32 141.33999999999997)" text-anchor="end" fill="black" font-size="10" >6.0</text></g><g ><line class="yAxisTick" x1="36.25" x2="51.25" y1="100.11999999999998" y2="100.11999999999998" stroke="black" stroke-width="1" ></line><text class="yAxisTickLabel" x="32" y="102.61999999999998" transform="rotate(0 32 102.61999999999998)" text-anchor="end" fill="black" font-size="10" >8.0</text></g><g ><line class="yAxisTick" x1="36.25" x2="51.25" y1="61.39999999999998" y2="61.39999999999998" stroke="black" stroke-width="1" ></line><text class="yAxisTickLabel" x="32" y="63.89999999999998" transform="rotate(0 32 63.89999999999998)" text-anchor="end" fill="black" font-size="10" >10.0</text></g><g ><line class="yAxisTick" x1="36.25" x2="51.25" y1="22.67999999999998" y2="22.67999999999998" stroke="black" stroke-width="1" ></line><text class="yAxisTickLabel" x="32" y="25.17999999999998" transform="rotate(0 32 25.17999999999998)" text-anchor="end" fill="black" font-size="10" >12.0</text></g><g ><line class="yAxisLine" stroke="black" stroke-width="1" x1="40" x2="40" y1="265" y2="3" ></line></g></g></g><g ><g ><rect x="50" y="235.64" height="19.360000000000003" width="43.95652173913044" fill="blue" opacity="1" ></rect><rect x="98.84057971014494" y="216.28" height="38.720000000000006" width="43.95652173913044" fill="blue" opacity="1" ></rect><rect x="147.68115942028987" y="216.28" height="38.720000000000006" width="43.95652173913044" fill="blue" opacity="1" ></rect><rect x="196.52173913043478" y="196.92" height="58.08000000000001" width="43.95652173913044" fill="blue" opacity="1" ></rect><rect x="245.3623188405797" y="206.6" height="48.400000000000006" width="43.95652173913044" fill="blue" opacity="1" ></rect><rect x="294.2028985507246" y="177.55999999999997" height="77.44000000000001" width="43.95652173913044" fill="blue" opacity="1" ></rect><rect x="343.04347826086956" y="235.64" height="19.360000000000003" width="43.95652173913044" fill="blue" opacity="1" ></rect></g><g ><rect x="50" y="138.83999999999997" height="96.80000000000001" width="43.95652173913044" fill="red" opacity="1" ></rect><rect x="98.84057971014494" y="158.2" height="58.08000000000001" width="43.95652173913044" fill="red" opacity="1" ></rect><rect x="147.68115942028987" y="80.75999999999999" height="135.52" width="43.95652173913044" fill="red" opacity="1" ></rect><rect x="196.52173913043478" y="177.55999999999997" height="19.360000000000003" width="43.95652173913044" fill="red" opacity="1" ></rect><rect x="245.3623188405797" y="90.43999999999997" height="116.16000000000003" width="43.95652173913044" fill="red" opacity="1" ></rect><rect x="294.2028985507246" y="158.2" height="19.360000000000003" width="43.95652173913044" fill="red" opacity="1" ></rect><rect x="343.04347826086956" y="158.2" height="77.44000000000001" width="43.95652173913044" fill="red" opacity="1" ></rect></g><g ><rect x="50" y="109.79999999999998" height="29.040000000000006" width="43.95652173913044" fill="violet" opacity="1" ></rect><rect x="98.84057971014494" y="158.2" height="0" width="43.95652173913044" fill="violet" opacity="1" ></rect><rect x="147.68115942028987" y="22.67999999999998" height="58.08000000000001" width="43.95652173913044" fill="violet" opacity="1" ></rect><rect x="196.52173913043478" y="22.67999999999998" height="154.88000000000002" width="43.95652173913044" fill="violet" opacity="1" ></rect><rect x="245.3623188405797" y="12.999999999999972" height="77.44000000000001" width="43.95652173913044" fill="violet" opacity="1" ></rect><rect x="294.2028985507246" y="119.47999999999996" height="38.720000000000006" width="43.95652173913044" fill="violet" opacity="1" ></rect><rect x="343.04347826086956" y="138.83999999999997" height="19.360000000000003" width="43.95652173913044" fill="violet" opacity="1" ></rect></g></g></g></svg>